<?xml version="1.0" encoding="UTF-8"?>
<!-- Created with Inkscape (http://www.inkscape.org/) -->
<svg width="27.4mm" height="29.3mm" version="1.1" viewBox="0 0 97.086613 103.89241" xmlns="http://www.w3.org/2000/svg" xmlns:cc="http://creativecommons.org/ns#" xmlns:dc="http://purl.org/dc/elements/1.1/" xmlns:osb="http://www.openswatchbook.org/uri/2009/osb" xmlns:rdf="http://www.w3.org/1999/02/22-rdf-syntax-ns#">
	<defs>
		<filter id="filter4762" color-interpolation-filters="sRGB">
			<feFlood flood-color="rgb(255,255,255)" flood-opacity=".149" result="flood"/>
			<feComposite in="flood" in2="SourceGraphic" operator="in" result="composite1"/>
			<feGaussianBlur in="composite1" result="blur" stdDeviation="1"/>
			<feOffset dx="0" dy="0" result="offset"/>
			<feComposite in="SourceGraphic" in2="offset" result="composite2"/>
		</filter>
	</defs>
	<metadata>
		<rdf:RDF>
			<cc:Work rdf:about="">
				<dc:format>image/svg+xml</dc:format>
				<dc:type rdf:resource="http://purl.org/dc/dcmitype/StillImage"/>
				<dc:title/>
			</cc:Work>
		</rdf:RDF>
	</metadata>
	<g id="ring" transform="translate(51.1 21.6)" fill="#fff">
		<path d="m0.344-13.7c-2.68 0.0935-5.5 0.36-7.89 1.59-3.32 1.71-6.27 4.45-8.17 7.67-0.832 1.41-1.28 3.13-1.21 4.77 0.11 2.39 1.03 4.81 2.39 6.78 1.11 1.6 2.73 2.87 4.46 3.78l3.44-5.67c-0.177-0.116-0.364-0.219-0.535-0.342-1.26-0.909-2.4-2.1-3.09-3.5-0.219-0.446-0.295-0.966-0.283-1.46 0.0177-0.719 0.164-1.47 0.516-2.1 0.834-1.49 2.2-2.66 3.6-3.63 0.778-0.539 1.66-0.979 2.59-1.16 3.15-0.62 6.65-0.908 9.62 0.316 2.32 0.958 4.82 2.72 5.51 5.13 0.519 1.82-0.252 4.03-1.48 5.47-0.612 0.718-1.4 1.23-2.28 1.63l1.63 6.44c0.219-0.0729 0.444-0.133 0.66-0.209 1.61-0.566 3.23-1.31 4.48-2.46 1.79-1.65 3.33-3.75 4.03-6.07 0.632-2.09 0.663-4.48 2e-3 -6.56-0.502-1.58-1.74-2.85-2.87-4.07-1.23-1.32-2.64-2.51-4.2-3.43-1.65-0.982-3.47-1.69-5.33-2.18-1.83-0.484-3.73-0.796-5.62-0.73z"/>
		<path d="m0.441-14.1c-2.87 0.113-5.88 0.445-8.42 1.78-3.23 1.7-6.12 4.38-7.96 7.53-0.864 1.48-1.32 3.28-1.24 4.99 0.115 2.39 0.998 4.83 2.39 6.78 1.15 1.62 2.84 2.85 4.61 3.79l3.6-5.95c-0.146-0.0951-0.301-0.18-0.443-0.279-1.26-0.879-2.48-1.98-3.18-3.34-0.228-0.441-0.297-0.966-0.285-1.46 0.0177-0.719 0.164-1.47 0.516-2.1 0.834-1.49 2.2-2.66 3.6-3.63 0.778-0.539 1.66-0.982 2.59-1.16 3.04-0.598 6.43-0.852 9.3 0.316 2.33 0.946 4.86 2.66 5.57 5.07 0.509 1.71-0.213 3.81-1.35 5.19-0.587 0.713-1.35 1.24-2.18 1.66l1.71 6.76c0.129-0.0445 0.264-0.0793 0.393-0.125 1.61-0.57 3.21-1.33 4.48-2.46 1.87-1.66 3.58-3.74 4.35-6.12 0.665-2.08 0.663-4.48 2e-3 -6.56-0.502-1.58-1.76-2.84-2.87-4.07-1.26-1.39-2.64-2.71-4.24-3.7-1.63-1.01-3.47-1.69-5.33-2.18-1.83-0.484-3.73-0.803-5.62-0.729z" fill-opacity=".542"/>
		<path d="m-0.555-14.3c-1.15 0.0333-2.27 0.154-3.34 0.363-6.78 1.33-15.1 9.04-13.5 15.8 0.979 4.11 3.28 7.41 6.89 9.48l3.83-6.33c-1.74-1.08-2.99-2.59-3.34-4.45-0.841-4.45 5.66-7.95 11.3-7.61 12.3 0.76 10.6 9.2 6.99 11.7-0.216 0.152-0.449 0.276-0.676 0.412l1.86 7.34c5.57-1.77 11.5-8.01 9.86-14.4-2.24-8.47-11.8-12.6-19.8-12.3z" fill-opacity=".503"/>
	</g>
	<g filter="url(#filter4762)">
		<path d="m3.75 55.3v-45.8h90v91.6h-90z" fill-opacity="0"/>
		<g>
			<path d="m22.4 101c-0.404-0.496-0.537-2.57-0.563-8.81-0.0521-12.1-0.322-20.7-0.663-21.1-0.0789-0.0789-0.514-0.0672-1.06 0.0284-1.62 0.285-4.27-0.228-5.51-1.07-1.04-0.696-4.11-6.07-4.77-8.33-0.129-0.443-0.33-2.1-0.446-3.68-0.29-3.93-0.434-4.44-2.1-7.45-0.524-0.949-1.09-2.18-1.26-2.73-0.388-1.28-0.634-1.76-1.54-2.99-0.794-1.08-0.889-1.54-0.532-2.57 0.256-0.735 0.294-0.764 1.12-0.859 0.792-0.0911 0.804-0.125 0.599-1.74-0.115-0.903 0.0515-1.32 0.388-0.967 0.22 0.229 1.9 4.31 1.9 4.62 0 0.0923 0.17 0.352 0.379 0.577 0.45 0.485 0.415 0.715-0.118 0.778-0.748 0.089-1.4-0.423-2.26-1.77-0.234-0.367-0.446-0.525-0.704-0.525-0.514 0-0.549 0.484-0.0819 1.13 0.206 0.285 0.468 0.722 0.583 0.969 0.115 0.248 0.32 0.543 0.457 0.656 0.137 0.113 0.248 0.296 0.248 0.407 0 0.413 0.511 1.69 1.4 3.51 1.17 2.4 2.12 3.45 3.46 3.83 1.2 0.345 1.91 0.225 2.93-0.498 0.46-0.325 1.25-0.799 1.76-1.05 1.43-0.724 2.45-2.18 2.45-3.5 0-0.521-0.674-1.18-1.21-1.18-0.466 0-1.18-0.706-1.64-1.63-0.292-0.583-0.315-0.792-0.222-1.99 0.117-1.5 6e-3 -1.79-0.691-1.79-0.231 0-0.613 0.162-0.848 0.36-0.644 0.542-2.24 1.31-2.91 1.4-0.684 0.0918-1.18-0.243-1.18-0.793 0-0.185-0.0958-0.372-0.213-0.417-0.117-0.0449-0.496-0.575-0.842-1.18-1.32-2.3-1.55-2.65-1.89-2.83-1.38-0.736 1.65-1.76 3.32-1.12 0.893 0.341 1.46 1.02 1.95 2.36 0.904 2.44 1.13 2.62 1.13 0.909 2e-3 -1.11 0.21-1.66 0.686-1.84 0.559-0.204 0.738 0.0663 0.373 0.561-0.351 0.475-0.302 0.861 0.141 1.1 0.343 0.183 0.625-0.135 0.655-0.74 0.0122-0.242 0.0714-0.49 0.132-0.55 0.199-0.199 0.736 0.448 1.32 1.59 0.316 0.619 0.713 1.33 0.882 1.58 0.389 0.57 0.387 0.591-0.0738 0.801-0.719 0.328-1.09 1.98-0.563 2.51 0.239 0.239 0.269 0.235 0.508-0.0597 0.14-0.172 0.342-0.757 0.45-1.3 0.261-1.31 0.502-1.24 1.17 0.376 0.516 1.25 0.528 1.32 0.536 3.38l8e-3 2.1-0.722 1.41c-0.87 1.7-1.04 2.48-0.783 3.49 0.298 1.15 1.19 1.92 2.22 1.92 0.666 0 1.53-0.536 4.99-3.09 4.35-3.21 6.55-4.62 7.95-5.08 0.77-0.256 1.34-0.551 1.6-0.823 0.704-0.751 1.58-2.45 1.91-3.68 0.174-0.66 0.407-1.53 0.519-1.94 0.138-0.501 0.161-0.932 0.0742-1.35-0.295-1.42-0.307-2.28-0.0479-3.44 0.445-2 0.198-3.33 0.531-4.97 0.302-1.48 0.685-2.97 1.32-4.34 0.527-1.13 1.27-2.16 2.04-3.15 0.546-0.705 1.11-1.42 1.81-1.97 2.38-1.83 4.43-3.66 7.97-4.18 1.55-0.23 3.23 0.201 4.72 0.759 1.52 0.567 2.88 1.54 4.13 2.56 0.757 0.621 1.47 1.32 2.01 2.15 0.646 0.996 0.949 2.18 1.38 3.28 0.555 1.41 1.28 2.78 1.56 4.26 0.175 0.91 0.0568 1.85 0.0814 2.78 0.015 0.563 0.0404 1.69 0.0404 1.69-4e-3 0.851-0.0641 2.07-0.133 2.7-0.109 1-0.085 1.26 0.183 1.95 0.17 0.438 0.341 1.12 0.379 1.52 0.0473 0.492 0.208 0.908 0.499 1.29 0.236 0.31 0.771 1.02 1.19 1.57 0.418 0.553 1.49 2.36 2.38 4.01 2.28 4.23 3.74 6.65 4.7 7.78 0.968 1.14 1.78 2.75 1.97 3.91 0.0735 0.449 0.246 1.12 0.382 1.49 0.137 0.371 0.389 1.11 0.561 1.65 0.638 1.99 0.796 2.34 1.34 2.94 0.308 0.336 1.04 1.48 1.63 2.55l1.07 1.94-0.101 1.61c-0.0855 1.36-0.0608 1.7 0.158 2.16 0.281 0.591 1.4 1.41 1.93 1.41 0.348 0 0.676 0.261 0.676 0.539 0 0.529-0.57 0.377-7.05-1.87-3.41-1.19-3.81-1.27-4.8-0.98-1.14 0.329-3.71 1.89-9.68 5.88l-5.1 3.41-0.116 0.942c-0.337 2.73 0.649 3.47 12.4 9.35 7.39 3.7 7.56 3.75 9.05 2.59 1.07-0.832 1.3-0.895 2.51-0.685 1.31 0.227 2.26 0.208 2.9-0.0593 0.296-0.124 0.76-0.225 1.03-0.225 0.344 0 0.684-0.16 1.13-0.532 1.34-1.12 2.48-1.55 2.66-1 0.212 0.644-3.73 2.74-5.16 2.74-0.978 0-1.94 0.349-2.46 0.89-0.56 0.585-0.755 1.09-1.07 2.79l-0.197 1.05-28.5 0.0379c-22.7 0.0302-28.6-4.5e-4 -28.7-0.15zm29.9-16.9c0.304-0.399 0.696-1.05 0.87-1.44 0.397-0.897 0.318-1.38-0.483-2.98-0.329-0.654-0.566-1.27-0.526-1.38 0.0397-0.103 0.533-0.44 1.1-0.749 1.81-0.989 1.9-1.21 0.906-2.3-1.19-1.3-1.46-1.7-1.46-2.14 0-0.487 0.588-1.51 0.825-1.44 0.0825 0.026 0.187 0.38 0.232 0.785 0.136 1.23 1.6 3.36 2.31 3.36 0.6 0 1.59-2.25 1.59-3.61 0-0.646-0.0856-0.889-0.526-1.49-0.49-0.667-0.974-1.62-0.974-1.92 0-0.0707 0.303-0.519 0.674-0.996 0.775-0.997 1.04-1.81 0.926-2.81-0.0879-0.745-0.669-2.04-1.06-2.36-0.359-0.298-0.286-0.872 0.215-1.69 0.434-0.706 0.654-1.38 0.823-2.53 0.129-0.882 0.35-1.05 1.52-1.18 1.63-0.178 2.29-0.695 2.42-1.89 0.0778-0.69 0.0711-0.704-0.29-0.613-0.482 0.121-0.969-0.225-1.24-0.884-0.211-0.505-0.232-0.515-1.11-0.515-0.742 0-0.974 0.0658-1.35 0.383-0.585 0.492-3.24 1.56-3.88 1.57-0.635 2e-3 -0.773 0.344-0.938 2.33-0.0685 0.825-0.158 1.6-0.198 1.72-0.0403 0.124-0.116 0.418-0.168 0.654-0.079 0.358-0.155 0.417-0.465 0.358-0.291-0.0556-0.389 3e-3 -0.456 0.272-0.132 0.526-0.0119 0.882 0.317 0.943 0.613 0.114 0.673 0.297 0.673 2.05 0 0.932-0.041 1.8-0.091 1.93-0.118 0.307-0.488 0.303-0.832-8e-3 -0.244-0.221-0.28-0.222-0.361-0.0109-0.152 0.397-6e-3 0.937 0.237 0.872 0.735-0.196 0.82-0.123 0.863 0.734 0.0226 0.454 0.151 1.04 0.285 1.29 0.226 0.432 0.226 0.493-4e-3 0.821-0.157 0.224-0.249 0.658-0.25 1.18-3e-3 0.974-0.262 1.58-0.677 1.58-0.283 0-0.329-0.154-0.201-0.675 0.0369-0.15-0.0769-0.24-0.341-0.271-0.751-0.087-0.955-0.514-0.935-1.96 0.0101-0.713 0.036-3.88 0.0577-7.05 0.0459-6.7 0.169-6.18-1.7-7.13-1.34-0.676-1.82-0.667-0.762 0.0134 0.404 0.259 0.971 0.715 1.26 1.01l0.525 0.541 0.042 2.43c0.0474 2.74-0.217 5.13-0.569 5.13-0.289 0-0.869-0.896-0.987-1.52-0.0686-0.366 0.0179-0.854 0.296-1.67 0.463-1.36 0.524-2.78 0.15-3.52-0.134-0.264-0.48-0.772-0.769-1.13l-0.525-0.648-0.476 0.461c-0.289 0.281-0.632 0.461-0.876 0.461-0.6 0-0.794 0.473-0.497 1.21 0.13 0.325 0.237 0.975 0.237 1.44 0 0.543 0.146 1.27 0.401 1.98 0.46 1.3 0.42 1.69-0.247 2.45-0.925 1.05-0.946 2.13-0.0689 3.57 0.284 0.466 0.516 1 0.516 1.19 0 0.189-0.263 0.786-0.584 1.33-0.785 1.32-0.979 2.08-0.775 3.03 0.36 1.68 1.26 2.58 2.66 2.67 0.0945 6e-3 0.392 0.354 0.661 0.773 0.269 0.42 0.85 1.03 1.29 1.35s0.8 0.64 0.798 0.7c-2e-3 0.0593-0.194 0.389-0.427 0.734-0.605 0.893-0.859 2.2-0.62 3.2 0.147 0.613 0.376 0.979 1.09 1.74 0.494 0.528 1.01 0.961 1.15 0.961s0.501-0.327 0.806-0.726zm-1.73-4.41c-0.116-0.324 0.188-0.712 0.556-0.712 0.409 0 0.619 0.394 0.37 0.694-0.214 0.257-0.836 0.27-0.926 0.0185zm2.01-4.09c-0.413-0.471-0.628-1.12-0.371-1.12 0.212 0 1.12 0.646 1.33 0.946 0.594 0.848-0.235 0.999-0.96 0.174zm-4.44-1.26c-0.0492-0.0797 0.0489-0.416 0.218-0.748 0.169-0.332 0.36-0.857 0.424-1.17 0.165-0.797 0.602-0.829 1.21-0.0888 0.686 0.832 0.62 1.09-0.424 1.66-0.919 0.505-1.28 0.591-1.43 0.343zm6.89-3.46c-0.132-0.214 0.333-0.893 0.612-0.893 0.313 0 0.423 0.365 0.223 0.738-0.176 0.328-0.671 0.42-0.835 0.155zm-6.62-0.628c-0.17-0.187-0.495-0.626-0.722-0.976-0.405-0.624-0.408-0.643-0.146-1.05 0.54-0.838 1.45-1.84 1.68-1.84 0.203 0 0.221 0.213 0.141 1.61-0.14 2.43-0.346 2.92-0.954 2.25zm5.19 0.0941c-0.306-0.369-0.374-2.9-0.0881-3.28 0.221-0.294 0.228-0.294 0.541-0.0111 0.407 0.369 0.816 1.77 0.699 2.39-0.108 0.578-0.481 1.14-0.754 1.14-0.109 0-0.288-0.108-0.398-0.241zm1.82-2.53c-0.138-0.166-0.118-0.241 0.0967-0.352 0.296-0.153 0.647-0.0842 0.647 0.126 0 0.0727-0.128 0.201-0.284 0.284-0.209 0.112-0.331 0.0962-0.46-0.0593zm-1.82-4.09c-0.337-0.887 0.0971-3.04 0.613-3.04 0.347 0 0.75 0.82 0.75 1.53 0 1.45-0.975 2.53-1.36 1.51zm1.89 0.26c-0.0568-0.0919-0.0608-0.336-9e-3 -0.543 0.0708-0.282 0.178-0.364 0.427-0.329 0.475 0.0676 0.483 0.926 9e-3 0.993-0.178 0.0253-0.37-0.0291-0.427-0.121zm-8.93-0.284c0-0.316 0.388-0.537 0.533-0.303 0.101 0.163-0.189 0.587-0.401 0.587-0.0724 0-0.132-0.128-0.132-0.284zm-0.448-5.38c4e-3 -0.449 0.664-1.46 0.982-1.51 0.367-0.0532 1.01 0.593 0.942 0.942-0.0303 0.149-0.384 0.367-0.87 0.538-1 0.353-1.06 0.354-1.05 0.0254zm8.95-0.288c-0.342-0.342 0.15-1.25 0.676-1.25 0.294 0 0.724 0.476 0.724 0.803 0 0.377-1.11 0.732-1.4 0.447zm-1.4-0.735c-0.0495-0.129-0.0129-0.404 0.0814-0.611 0.211-0.462 0.673-0.42 0.742 0.0675 0.0879 0.618-0.617 1.08-0.823 0.543zm2.74-0.976c-0.483-0.38-0.506-0.794-0.0618-1.11 0.918-0.643 1.8 0.329 1.02 1.12-0.375 0.375-0.465 0.374-0.955-0.0109zm2.08 0.01c-0.114-0.184 0.299-0.364 0.521-0.227 0.0878 0.0543 0.121 0.161 0.0733 0.238-0.114 0.185-0.477 0.178-0.594-0.0114zm-38.4 10.6c0.412-0.142 0.936-0.431 1.16-0.642 0.385-0.358 0.412-0.464 0.412-1.61 0-2.33-1.18-5.39-2.5-6.46-0.892-0.729-1.74-2.03-2.17-3.32-0.483-1.47-0.695-1.83-1.08-1.83-0.184 2e-5 -0.995 0.236-1.8 0.525-0.808 0.289-1.65 0.525-1.88 0.526-0.224 4.5e-4 -0.655 0.0699-0.959 0.154-0.811 0.225-0.932 0.732-0.824 3.43 0.136 3.4 0.716 5.23 2.41 7.62 0.791 1.11 1.41 1.58 2.43 1.84 0.886 0.223 3.9 0.0817 4.78-0.224zm31.9-10.5c0-0.124-0.101-0.225-0.225-0.225-0.234 0-0.298 0.177-0.125 0.35 0.173 0.173 0.35 0.109 0.35-0.125zm1.02-2.08c0.357-0.34 1.05-1.22 1.54-1.95 0.853-1.27 0.882-1.34 0.639-1.61-0.141-0.155-0.591-0.382-1-0.504-0.711-0.211-0.795-0.204-1.88 0.17-1.11 0.383-1.15 0.386-1.91 0.148-0.845-0.266-2.1-0.325-2.24-0.105-0.0959 0.155 0.252 1.26 0.692 2.2 0.452 0.965 1.61 2.17 2.23 2.3 0.785 0.176 1.21 0.0338 1.92-0.65zm2.42-12.5c0.0989-0.119 0.158-0.371 0.131-0.56-0.066-0.463-0.645-0.553-3.61-0.564-2.52-9e-3 -2.73 0.0615-2.05 0.678 0.271 0.245 0.575 0.285 2.29 0.297 1.09 8e-3 2.14 0.0883 2.35 0.181 0.513 0.228 0.683 0.222 0.893-0.0307zm-44-0.0958c0.604-0.211 0.751-0.661 0.355-1.09-0.166-0.179-0.362-0.561-0.436-0.85-0.108-0.421-0.222-0.54-0.575-0.601-0.401-0.0694-0.448-0.141-0.524-0.806-0.0939-0.816-0.4-1.14-1.07-1.14-0.587 0-0.55 0.386 0.118 1.24 0.594 0.763 0.833 1.45 0.899 2.58 0.0241 0.412 0.0478 0.767 0.0528 0.788 0.0237 0.0984 0.765 0.0199 1.18-0.125zm47.1-3.03c0.637-1.42 0.865-3.2 0.636-4.97-0.105-0.818-0.26-1.51-0.345-1.54-0.0844-0.0277-0.287 0.237-0.45 0.588-0.255 0.55-0.369 0.646-0.819 0.688-0.418 0.0397-0.585-0.0293-0.839-0.348-0.317-0.398-1.08-0.666-1.92-0.673-0.426-4e-3 -0.429 3e-3 -0.326 0.685 0.0815 0.544 0.0487 0.749-0.156 0.975-0.143 0.158-0.304 0.287-0.358 0.287-0.142 0-0.605-1.01-0.602-1.32 7e-3 -0.835 0.802-2.1 1.65-2.63 0.428-0.266 0.754-0.328 1.73-0.328h1.2l-0.0397-0.499c-0.0218-0.275-0.182-0.882-0.355-1.35-0.432-1.16-0.527-2.31-0.218-2.62 0.328-0.328 0.297-0.726-0.1-1.32-0.604-0.897-1.17-1.11-2.86-1.08-1.22 0.0211-1.62 0.0888-2.18 0.369-0.637 0.316-0.753 0.467-1.47 1.92-0.574 1.16-1.09 1.94-1.99 2.96-0.665 0.76-1.21 1.44-1.21 1.51 0 0.069 0.354 0.122 0.788 0.118 1.21-0.0122 2.17 0.332 2.91 1.04 0.376 0.36 0.65 0.76 0.65 0.948 0 0.179 0.063 0.326 0.14 0.326 0.244 0 0.334 0.575 0.146 0.932-0.228 0.433-0.426 0.563-0.699 0.458-0.214-0.0822-0.195-0.509 0.0518-1.15 0.103-0.267 0.0382-0.279-1.12-0.212-0.919 0.0532-1.33 0.148-1.64 0.375-0.918 0.679-1.43 0.526-1.62-0.486-0.137-0.73-0.333-0.78-0.433-0.11-0.226 1.52-0.447 2.56-0.638 3.02-0.328 0.785-0.284 2.12 0.103 3.16 0.186 0.497 0.431 0.98 0.544 1.07 0.315 0.261 0.803 0.0649 1.71-0.687 1.17-0.966 2.3-1.48 3.22-1.46 0.412 8e-3 0.952 0.0185 1.2 0.0232 0.248 5e-3 0.76 2e-3 1.14-6e-3s0.891 0.0898 1.14 0.217c0.682 0.353 1.5 1.34 1.8 2.18l0.267 0.751 0.489-0.478c0.269-0.263 0.664-0.867 0.878-1.34zm29.5 53.7c-0.15-0.596 0.0371-1.58 0.361-1.9 0.31-0.31 2.07-0.863 2.75-0.863 0.383 0 0.669 0.337 0.508 0.598-0.0413 0.0668-0.43 0.206-0.863 0.309-1.07 0.256-1.41 0.509-1.94 1.44-0.504 0.892-0.672 0.978-0.813 0.415zm-0.794-4.62c-0.276-0.333-0.0505-0.641 1.11-1.51 2.42-1.82 3.3-2.14 3.3-1.21 0 0.409-0.17 0.564-1.85 1.69-1.86 1.25-2.25 1.41-2.56 1.03zm2.98-0.0234c-0.158-0.19-0.131-0.293 0.158-0.6 0.632-0.672 1.31-0.277 0.821 0.476-0.265 0.405-0.7 0.46-0.979 0.124zm3.22-4.35c-0.236-0.564-0.182-0.818 0.171-0.818 0.156 0 0.216 0.187 0.216 0.675 0 0.371-0.0372 0.675-0.0827 0.675s-0.183-0.239-0.305-0.532z" fill-opacity=".436"/>
			<path d="m22.7 101c-0.43-0.273-0.512-1.82-0.639-12-0.136-11-0.363-17.5-0.615-17.8-0.0833-0.0831-1-0.154-2.06-0.16-2.59-0.0132-4.19-0.486-5.15-1.51-1.23-1.32-3.85-6.27-4.24-8.01-0.118-0.529-0.288-2.11-0.377-3.51-0.0892-1.4-0.265-2.96-0.392-3.45-0.221-0.867-0.913-2.37-2.16-4.71-0.328-0.612-0.731-1.56-0.896-2.1-0.324-1.07-1.14-2.53-1.79-3.21-0.323-0.339-0.397-0.551-0.377-1.08 0.0434-1.12 0.307-1.48 1.21-1.62l0.78-0.124 0.044-1.08 0.044-1.08 0.501 1.05c0.275 0.578 0.675 1.59 0.888 2.25s0.52 1.31 0.682 1.44c0.475 0.389 0.0386 0.483-0.638 0.138-0.387-0.198-0.804-0.609-1.17-1.15-0.676-1.01-0.982-1.24-1.35-1.01-0.462 0.29-0.413 1.12 0.105 1.77 0.252 0.316 0.457 0.658 0.457 0.76s0.141 0.363 0.313 0.582 0.381 0.65 0.464 0.958c0.0831 0.308 0.612 1.51 1.17 2.68 1.64 3.38 2.8 4.41 4.99 4.41 0.966 0 1.24-0.107 2.14-0.831 0.33-0.266 1-0.688 1.5-0.938 1.47-0.743 2.31-1.87 2.56-3.46 0.0955-0.597 0.0647-0.68-0.452-1.21-0.426-0.436-0.641-0.551-0.928-0.496-0.472 0.0903-0.937-0.329-1.41-1.27-0.373-0.746-0.394-0.975-0.226-2.37 0.0918-0.764 0.0649-0.953-0.178-1.25-0.426-0.526-1.23-0.479-1.98 0.115-0.893 0.708-2.16 1.24-2.82 1.18-0.87-0.0719-0.73-0.437 0.253-0.659 0.829-0.187 1.35-0.607 1.36-1.09 3e-3 -0.188 0.069-0.16 0.281 0.115 0.526 0.684 0.916 0.094 0.916-1.39v-0.613l0.415 0.497c0.547 0.655 1.09 0.612 1.32-0.104 0.0882-0.273 0.223-0.509 0.3-0.525 0.125-0.0258 1.71 2.82 1.71 3.07 0 0.0569-0.131 0.145-0.292 0.196-0.197 0.0624-0.372 0.368-0.538 0.94-0.368 1.27-0.111 2.14 0.63 2.14 0.399 0 0.682-0.499 0.878-1.54 0.0587-0.313 0.173-0.547 0.255-0.52 0.0814 0.0271 0.308 0.443 0.504 0.923 0.958 2.36 0.826 4.62-0.411 7.04-0.935 1.83-0.942 3.21-0.0205 4.31 0.783 0.93 1.95 1.15 3.07 0.578 0.608-0.31 1.02-0.602 5.55-3.9 2.18-1.59 3.37-2.41 4.75-3.25 0.303-0.186 1-0.475 1.56-0.642 0.554-0.167 1.21-0.473 1.45-0.678 0.565-0.475 1.78-2.51 1.97-3.29 0.0799-0.33 0.314-1.14 0.521-1.81 0.441-1.42 0.453-1.67 0.14-3.01-0.225-0.971-0.221-1.09 0.1-2.64 0.326-1.57 0.181-1.92 0.298-2.88 0.163-1.34 0.209-2.7 0.561-4 0.2-0.738 0.538-1.43 0.873-2.12 0.368-0.755 0.772-1.5 1.24-2.19 0.698-1.03 1.43-2.05 2.33-2.9 1.36-1.26 2.91-2.36 4.58-3.17 1.32-0.634 2.74-1.39 4.2-1.26 3.54 0.317 7.05 2.28 9.51 4.84 1.07 1.11 1.3 2.79 1.92 4.2 0.5 1.15 1.15 2.25 1.44 3.47 0.233 0.992 0.197 2.03 0.207 3.05 5e-3 0.513-0.129 0.883-0.074 1.54 0.0472 0.563 2e-3 1.68-0.0999 2.48-0.18 1.41-0.175 1.48 0.202 2.62 0.213 0.642 0.388 1.42 0.388 1.73 0 0.461 0.139 0.727 0.763 1.46 1.15 1.35 1.75 2.29 3.29 5.17 2.31 4.32 4.02 7.1 5.02 8.16 0.652 0.693 1.42 2.36 1.66 3.61 0.115 0.599 0.371 1.46 0.571 1.91 0.2 0.451 0.479 1.29 0.622 1.86 0.314 1.26 0.352 1.33 1.18 2.3 0.36 0.422 1.07 1.55 1.58 2.5l0.928 1.74-0.0295 1.75c-0.0236 1.4 0.022 1.85 0.225 2.24 0.299 0.575 1.27 1.32 1.9 1.46 0.383 0.084 0.643 0.377 0.329 0.371-0.0619-1e-3 -1.6-0.515-3.41-1.14-5.57-1.92-6.5-2.19-7.32-2.1-1.38 0.156-2.52 0.822-10.3 5.98-2.6 1.72-4.88 3.3-5.06 3.51-0.286 0.314-0.338 0.54-0.338 1.48 0 1.31 0.152 1.78 0.797 2.45 1.09 1.15 3.24 2.39 10.6 6.14 6.25 3.18 7.71 3.82 8.8 3.84 0.705 0.0111 0.844-0.0481 1.63-0.695 0.961-0.791 0.977-0.794 3.11-0.53 1.3 0.161 1.52 0.153 1.99-0.0736 0.293-0.14 0.797-0.254 1.12-0.254 0.469 0 0.726-0.121 1.28-0.605 1.28-1.11 3.06-1.74 1.91-0.678-0.826 0.766-3.02 1.67-4.74 1.95-1.59 0.262-1.9 0.391-2.47 1.04-0.488 0.556-0.838 1.5-1.02 2.75-0.0573 0.396-0.171 0.804-0.254 0.908-0.119 0.149-5.96 0.187-28.3 0.185-15.5-1e-3 -28.2-0.0556-28.3-0.121zm29.8-16.7c1.34-1.81 1.43-2.61 0.505-4.41-0.33-0.638-0.6-1.25-0.6-1.35 0-0.105 0.485-0.448 1.08-0.761 1.92-1.01 1.98-1.45 0.443-3.1-1.06-1.14-1.19-1.46-0.831-2.02l0.265-0.405 0.176 0.675c0.431 1.66 2.05 3.53 2.73 3.17 0.8-0.428 1.54-2.17 1.59-3.72 0.0231-0.812-0.0288-0.998-0.441-1.58-0.557-0.781-0.958-1.54-0.958-1.81 0-0.109 0.301-0.6 0.668-1.09 1.21-1.62 1.23-3.12 0.0659-4.86l-0.595-0.892 0.608-1.17c0.355-0.685 0.646-1.48 0.699-1.92 0.139-1.15 0.374-1.42 1.22-1.43 1.36-6e-3 2.61-0.912 2.82-2.05 0.135-0.717-0.0763-1.02-0.708-1.02-0.431 0-0.545-0.0787-0.762-0.525-0.43-0.887-0.521-0.938-1.56-0.872-0.774 0.0493-1.03 0.134-1.37 0.455-0.461 0.439-3.34 1.61-3.96 1.62-0.217 4.5e-4 -0.472 0.095-0.568 0.21-0.0955 0.115-0.271 1.08-0.389 2.15-0.267 2.4-0.373 2.74-0.604 1.92-0.195-0.689-0.443-0.841-0.574-0.352-0.155 0.578-0.108 2.94 0.0604 3.05 0.0861 0.0532 0.254 0.0159 0.373-0.083 0.174-0.144 0.239-0.125 0.331 0.0996 0.147 0.36 0.149 3.14 3e-3 3.29-0.0614 0.0613-0.235-6e-4 -0.387-0.138-0.383-0.347-0.725-0.311-0.832 0.0884-0.26 0.971 0.0575 1.63 0.636 1.32 0.449-0.24 0.469-0.217 0.469 0.522 0 0.375 0.106 0.888 0.236 1.14 0.214 0.414 0.214 0.501 0 0.953-0.13 0.273-0.236 0.807-0.236 1.19 0 0.742-0.0659 0.801-0.516 0.46-0.16-0.121-0.411-0.22-0.557-0.22-0.395 0-0.614-0.543-0.598-1.49 8e-3 -0.461 0.0541-3.58 0.103-6.93l0.0894-6.09-0.4-0.475c-0.532-0.632-3.45-2.1-3.7-1.86-0.194 0.194 0.346 0.726 1.59 1.56 1.14 0.768 1.31 1.08 1.4 2.62 0.0416 0.73-4e-3 2.17-0.1 3.2-0.247 2.63-0.341 2.85-0.808 1.87-0.345-0.724-0.318-1.28 0.122-2.5 0.679-1.88 0.407-3.26-0.971-4.92l-0.435-0.525-0.504 0.488c-0.3 0.29-0.659 0.488-0.886 0.488-0.598 0-0.932 0.475-0.814 1.16 0.0545 0.313 0.153 1.11 0.22 1.77 0.0663 0.66 0.266 1.56 0.443 1.99 0.475 1.17 0.427 1.66-0.24 2.44-0.543 0.634-0.562 0.698-0.562 1.79 0 1.03 0.0473 1.21 0.488 1.9 0.268 0.418 0.488 0.93 0.488 1.14s-0.284 0.871-0.632 1.47c-0.807 1.39-0.933 2.52-0.417 3.72 0.447 1.04 1.47 1.98 2.15 1.98 0.444 0 0.562 0.0905 0.967 0.742 0.254 0.408 0.804 0.988 1.22 1.29s0.761 0.575 0.761 0.61c0 0.0348-0.213 0.441-0.474 0.902-0.645 1.14-0.771 2.71-0.295 3.69 0.44 0.908 1.82 2.36 2.24 2.36 0.233 0 0.539-0.279 1.03-0.938zm-1.72-4.71c0.0291-0.151 0.176-0.298 0.327-0.327 0.198-0.0382 0.26 0.0234 0.222 0.222-0.0291 0.151-0.176 0.298-0.327 0.327-0.198 0.0382-0.26-0.0234-0.222-0.222zm2.01-3.98c-0.343-0.49-0.136-0.538 0.327-0.0761 0.317 0.317 0.35 0.405 0.154 0.405-0.138 0-0.354-0.148-0.481-0.328zm-4.23-1.73c0.117-0.227 0.29-0.699 0.385-1.05 0.0976-0.363 0.262-0.638 0.381-0.638 0.181 0 0.539 0.407 0.881 1 0.0627 0.109-0.205 0.351-0.706 0.638-1.02 0.584-1.22 0.595-0.94 0.0494zm6.85-3.27c0.104-0.126 0.221-0.198 0.258-0.16 0.104 0.104-0.107 0.389-0.289 0.389-0.0995 0-0.0881-0.0861 0.0302-0.229zm-1.71-0.459c-0.152-0.397-0.102-2.74 0.0616-2.84 0.218-0.134 0.74 1.1 0.744 1.75 6e-3 1.03-0.543 1.77-0.806 1.08zm-5.63-0.613c-0.255-0.385-0.464-0.764-0.464-0.841 0-0.227 1.21-1.68 1.4-1.68 0.189 0 0.194 0.307 0.0307 2.06-0.129 1.38-0.302 1.47-0.968 0.462zm5.69-6.77c0-0.784 0.0713-1.27 0.216-1.46 0.207-0.28 0.227-0.281 0.488-0.023 0.567 0.559 0.186 2.66-0.482 2.66-0.176 0-0.222-0.238-0.222-1.17zm1.95 0.959c0-0.131 0.107-0.238 0.238-0.238 0.265 0 0.219 0.323-0.0594 0.416-0.098 0.0326-0.178-0.0475-0.178-0.178zm-9.23-5.49c-0.14-0.227 0.371-1.04 0.653-1.04 0.296 0 0.627 0.275 0.625 0.518-2e-3 0.213-1.17 0.694-1.28 0.525zm8.63-0.404c0-0.072 0.0888-0.252 0.197-0.401 0.255-0.348 0.778-0.254 0.778 0.14 0 0.226-0.117 0.309-0.488 0.345-0.268 0.0259-0.488-0.0119-0.488-0.0838zm-1.2-0.713c0-0.124 0.0675-0.225 0.15-0.225s0.15 0.101 0.15 0.225-0.0675 0.225-0.15 0.225-0.15-0.101-0.15-0.225zm2.56-0.886c-0.318-0.384-0.136-0.764 0.365-0.764 0.398 0 0.448 0.0505 0.448 0.45 0 0.342-0.0752 0.461-0.313 0.495-0.172 0.0246-0.397-0.0565-0.5-0.18zm-37.5 11.3c1.49-0.254 2.54-0.798 2.82-1.46 0.725-1.73-0.847-6.88-2.43-7.97-0.559-0.385-0.941-0.849-1.61-1.95-0.124-0.206-0.411-0.935-0.638-1.62-0.607-1.83-0.71-1.87-2.85-1.17-0.934 0.307-2.08 0.611-2.55 0.674-0.468 0.0635-0.954 0.218-1.08 0.343-0.81 0.81-0.632 5 0.336 7.88 0.215 0.64 0.494 1.37 0.621 1.61 0.397 0.776 1.96 2.84 2.32 3.07 1.06 0.662 3.18 0.91 5.06 0.591zm33.2-10.8c0.196-0.311-0.103-0.725-0.523-0.725-0.37 0-0.496 0.34-0.278 0.747 0.194 0.362 0.566 0.352 0.802-0.0223zm0.485-1.61c0.447-0.273 1.71-1.85 2.52-3.13 0.594-0.947 0.535-1.19-0.39-1.62-0.974-0.454-1.43-0.46-2.61-0.0376-0.917 0.329-0.935 0.33-1.96 0.0642-0.568-0.147-1.3-0.246-1.62-0.219-0.522 0.0426-0.598 0.0975-0.64 0.467-0.124 1.08 1.32 3.61 2.52 4.42 0.621 0.419 1.56 0.442 2.19 0.0559zm2.92-12.9c0.403-0.403 0.385-0.988-0.0394-1.27-0.263-0.173-0.983-0.232-3.22-0.266-3.38-0.0513-3.58 0.0137-2.71 0.888l0.552 0.552 1.84-0.0254c1.25-0.0172 2.01 0.0401 2.37 0.178 0.736 0.285 0.86 0.279 1.2-0.0609zm2.29-1.89c1.13-1.27 1.7-3.35 1.56-5.76-0.15-2.63-0.546-3.36-1.12-2.06-0.155 0.351-0.386 0.723-0.513 0.828-0.287 0.237-0.678 0.0998-0.798-0.279-0.13-0.409-0.454-0.538-1.66-0.656-1.57-0.155-1.61-0.225-0.699-1.14l0.777-0.777 1.32 0.0548 1.32 0.0548 0.0462-0.557c0.0283-0.34-0.138-1.09-0.427-1.93-0.382-1.11-0.442-1.45-0.312-1.73 0.0885-0.194 0.23-0.353 0.314-0.353 0.25 0 0.175-0.72-0.14-1.34-0.644-1.26-1.57-1.63-3.74-1.47-1.94 0.14-2.57 0.566-3.22 2.18-0.433 1.07-1.1 2.06-2.36 3.48-0.913 1.03-1.79 2.72-1.79 3.45 0 0.552-0.25 1.77-0.613 2.97-0.351 1.17-0.367 2.25-0.0439 2.99 0.134 0.307 0.288 0.76 0.343 1.01 0.123 0.553 0.724 0.89 1.24 0.694 0.193-0.0736 0.689-0.415 1.1-0.758 1.46-1.22 3.21-1.8 3.97-1.33 0.222 0.139 0.375 0.139 0.68 0 1.13-0.515 2.47 0.129 3.36 1.62 0.173 0.289 0.315 0.663 0.316 0.832 6e-4 0.308 0.286 0.706 0.454 0.632 0.0494-0.0217 0.336-0.315 0.638-0.651zm-4.08-6.5c-0.198-0.369-0.206-1.06-0.0128-1.06 0.193 0 0.455 0.507 0.455 0.881 0 0.426-0.256 0.532-0.442 0.183zm-2.22-0.342c0.0327-0.098 0.14-0.205 0.238-0.238 0.11-0.0365 0.143 0.032 0.0871 0.178-0.105 0.273-0.415 0.329-0.325 0.0594zm-4.08-0.556c-0.0837-0.156-0.195-0.653-0.248-1.1-0.0876-0.746-0.0646-0.842 0.255-1.07 0.737-0.516 2.61-0.13 3.52 0.725 0.3 0.283 0.507 0.575 0.461 0.649-0.046 0.0744-0.572 0.181-1.17 0.236-0.746 0.0693-1.28 0.217-1.72 0.472-0.761 0.446-0.898 0.457-1.1 0.0868zm1.77-1.35c0.262-0.166 0.0871-0.464-0.272-0.464-0.306 0-0.66 0.349-0.508 0.501 0.138 0.138 0.534 0.119 0.78-0.0368zm7.37-0.164c0-0.0825-0.165-0.15-0.366-0.15s-0.408 0.0675-0.459 0.15c-0.0541 0.0875 0.0984 0.15 0.366 0.15 0.252 0 0.459-0.0675 0.459-0.15zm31.6 60.4c0-0.741 0.198-1.04 0.861-1.31 0.722-0.289 2.37-0.508 2.24-0.298-0.0511 0.0826-0.347 0.192-0.659 0.243-0.794 0.13-1.47 0.584-1.91 1.29-0.21 0.333-0.415 0.605-0.455 0.605-0.0402 0-0.0731-0.241-0.0731-0.535zm-0.9-4.11c0-0.229 0.726-0.85 2.1-1.8 1.47-1.01 1.85-1.14 1.92-0.657 0.0382 0.268-0.259 0.528-1.67 1.46-1.57 1.04-2.35 1.37-2.35 0.992zm3.03-0.0329c0.0813-0.244 0.53-0.51 0.652-0.387 0.0554 0.0554 0.0608 0.205 0.0119 0.332-0.103 0.268-0.753 0.321-0.664 0.0547zm3.22-3.97c-0.157-0.157-0.117-0.8 0.05-0.8 0.0825 0 0.15 0.202 0.15 0.45 0 0.466-0.0305 0.519-0.2 0.35zm-84.5-42.6c-0.196-0.309-0.603-1.01-0.904-1.57-0.301-0.552-0.749-1.2-0.995-1.45-0.246-0.246-0.448-0.49-0.448-0.542 0-0.171 1.03-0.529 1.53-0.529 0.377 0 0.445 0.04 0.305 0.18-0.303 0.303-0.203 0.8 0.285 1.41 0.678 0.85 0.868 1.28 0.978 2.22 0.0839 0.714 0.0623 0.838-0.145 0.838-0.134 0-0.404-0.253-0.601-0.562zm2.84-0.423c-0.13-0.13-0.278-0.416-0.331-0.638-0.125-0.527-0.483-0.927-0.828-0.927-0.215 0-0.277-0.114-0.277-0.513 0-0.334-0.136-0.675-0.388-0.975-0.37-0.44-0.374-0.462-0.0802-0.462 0.561 0 1.32 0.845 1.73 1.92 0.426 1.13 0.615 1.83 0.495 1.83-0.0443 0-0.187-0.106-0.316-0.235z" fill-opacity=".566"/>
			<path d="m22.6 100c-5e-3 -0.103-0.0762-0.525-0.158-0.938-0.0833-0.418-0.208-5.73-0.282-12-0.0731-6.19-0.201-12.4-0.285-13.9-0.189-3.24-0.203-3.27-1.76-3.03-1.47 0.222-3.5-0.055-4.75-0.647-1.1-0.521-2.55-2.59-4.03-5.74-0.96-2.04-1.33-3.09-1.31-3.78 7e-3 -0.439 0.0651-0.33 0.311 0.586 0.466 1.74 1.06 3 2.02 4.33 0.757 1.04 1.02 1.29 1.85 1.7 0.849 0.427 1.14 0.492 2.45 0.544 2.53 0.102 4.65-0.534 5.13-1.54 0.85-1.79-0.735-7.34-2.37-8.31-0.566-0.334-1.34-1.3-1.67-2.11-0.117-0.278-0.213-0.533-0.213-0.565 0-0.0326 0.287 0.239 0.638 0.604 0.693 0.721 1.62 1.08 2.36 0.918 0.65-0.143 1.77-0.871 4.88-3.16 2.83-2.09 5.89-4.17 6.75-4.6 0.248-0.123 0.834-0.334 1.3-0.469 0.469-0.135 1.04-0.406 1.28-0.602 0.755-0.638 1.86-2.67 2.26-4.18 0.206-0.764 0.456-1.69 0.556-2.05 0.119-0.433 0.137-0.873 0.0536-1.28-0.29-1.39-0.308-2.29-0.0665-3.35 0.134-0.588 0.242-1.33 0.24-1.64-5e-3 -0.829-8e-3 -3.06 0.397-4.52 0.598-2.15 1.62-4.22 2.94-6.02 1.14-1.54 2.57-2.91 4.2-3.93 1.86-1.16 3.95-2.3 6.14-2.35 1.68-0.0365 3.28 0.835 4.78 1.6 1.71 0.87 3.49 1.85 4.7 3.34 0.978 1.2 1.25 2.84 1.86 4.26 0.477 1.11 1.17 2.16 1.41 3.35 0.312 1.5 0.0522 2.86 0.0472 4.61-2e-3 0.825-0.0603 2.07-0.129 2.78-0.11 1.13-0.0873 1.37 0.192 2.07 0.174 0.436 0.316 1.11 0.316 1.5 0 0.76 0.16 1.07 1.05 2.05 0.868 0.961 1.67 2.22 3.08 4.87 1.34 2.51 2.84 5.11 3.81 6.6 0.297 0.454 0.573 0.901 0.614 0.993 0.0413 0.0925 0.279 0.339 0.528 0.547 0.633 0.529 1.52 2.39 1.78 3.72 0.119 0.615 0.38 1.49 0.58 1.94 0.506 1.15 0.737 2.18 0.623 2.79-0.0816 0.435-0.0534 0.515 0.183 0.521 0.442 0.0107 1.45 1.29 2.48 3.15l0.949 1.71v1.9c0 1.9 3e-4 1.9 0.484 2.59 0.266 0.379 0.465 0.689 0.441 0.689-0.0417 0-3.47-1.2-4.9-1.72-0.371-0.134-1.38-0.449-2.24-0.701-1.4-0.408-1.64-0.438-2.18-0.279-0.986 0.29-1.57 0.574-3.29 1.61-1.75 1.05-10.1 6.57-11.4 7.54l-0.787 0.581-0.104 1.03c-0.281 2.8 0.892 3.76 10.9 8.84 7.36 3.75 9.04 4.45 10.1 4.19 0.212-0.0532 0.783-0.407 1.27-0.787 0.876-0.684 0.891-0.689 1.76-0.594 1.33 0.147 1.39 0.202 0.713 0.689-0.83 0.602-1.32 1.52-1.55 2.92l-0.202 1.19-28.3 0.0379c-22.6 0.0302-28.3-3e-5 -28.3-0.15zm29.4-15.6c1.19-1.28 1.88-2.74 1.71-3.65-0.0537-0.286-0.365-1.02-0.691-1.64-0.326-0.616-0.593-1.15-0.593-1.19 0-0.0397 0.475-0.322 1.06-0.627 1.1-0.579 1.64-1.1 1.64-1.59 0-0.235 0.0506-0.258 0.29-0.13 0.489 0.262 0.754 0.178 1.29-0.407 0.633-0.687 1.1-1.89 1.22-3.1 0.0935-1-0.0718-1.51-0.841-2.56-0.644-0.881-0.652-1.18-0.0577-1.96 1.37-1.79 1.44-3.43 0.215-5.24-0.257-0.381-0.468-0.754-0.468-0.828 0-0.0743 0.238-0.594 0.53-1.15 0.31-0.597 0.594-1.42 0.684-1.99 0.0847-0.534 0.234-1.02 0.333-1.09 0.0983-0.0625 0.468-0.115 0.821-0.116 1.59-6e-3 2.88-1.13 2.88-2.51 0-0.709-0.21-0.937-0.86-0.937-0.448 0-0.53-0.0688-0.78-0.654-0.248-0.58-0.348-0.664-0.879-0.749-0.865-0.138-1.52 0.0255-2.19 0.543-0.501 0.391-1.14 0.679-3.27 1.48-0.243 0.0914-0.5 0.0987-0.644 0.0182-0.207-0.116-0.175-0.214 0.234-0.724 0.633-0.79 1.86-2.62 1.99-2.96 0.149-0.404-0.574-1.05-1.52-1.37l-0.797-0.265-1.13 0.413c-1.12 0.408-1.14 0.41-1.91 0.166-0.999-0.315-2.38-0.327-2.63-0.0237-0.557 0.671 1.26 4.21 2.59 5.04 0.38 0.239 0.675 0.29 1.42 0.249 0.932-0.0524 1.08 0.0307 0.81 0.456-0.0985 0.155-0.216 0.141-0.582-0.0688-0.386-0.221-0.497-0.232-0.699-0.0636-0.471 0.391-0.179 1.36 0.41 1.36 0.187 0 0.421-0.081 0.52-0.18 0.14-0.14 0.177-0.015 0.165 0.562-8e-3 0.408-0.0664 0.911-0.129 1.12-0.0987 0.323-0.13 0.339-0.226 0.112-0.16-0.376-0.631-0.328-0.729 0.075-0.215 0.892-0.27 2.48-0.107 3.09 0.155 0.577 0.218 0.645 0.541 0.583l0.365-0.0698v1.4c0 1.29-0.137 1.74-0.354 1.18-0.104-0.27-0.565-0.295-0.816-0.045-0.14 0.14-0.18-0.824-0.18-4.34v-4.52l-0.374-0.444c-0.628-0.746-3.72-2.23-4.12-1.98-0.267 0.165-0.0681 0.679 0.374 0.969 0.203 0.133 0.369 0.329 0.369 0.435 0 0.327-0.8 0.974-1.27 1.03-0.315 0.0349-0.526 0.192-0.73 0.543-0.272 0.467-0.274 0.529-0.0448 1.13 0.134 0.35 0.243 1.01 0.243 1.48 0 0.53 0.138 1.21 0.375 1.84 0.206 0.548 0.375 1.16 0.375 1.35 0 0.195-0.266 0.677-0.591 1.07-0.962 1.16-0.98 2.12-0.0694 3.77 0.281 0.508 0.51 1.04 0.51 1.17s-0.266 0.7-0.591 1.25c-1.03 1.74-1.1 2.82-0.312 4.37 0.295 0.578 1.37 1.64 1.69 1.68 0.103 0.0105 0.341 0.0352 0.529 0.0548 0.188 0.0196 0.363 0.0616 0.388 0.0934 0.0253 0.0318 0.264 0.381 0.531 0.775 0.267 0.395 0.75 0.893 1.07 1.11s0.589 0.432 0.588 0.483c-1e-3 0.0509-0.204 0.49-0.45 0.976-0.38 0.749-0.448 1.06-0.448 2.02 0 0.829 0.0811 1.3 0.304 1.76 0.313 0.647 2.08 2.47 2.4 2.47 0.0978 0 0.38-0.216 0.627-0.481zm-1.15-5.52c0.051-0.0825 0.122-0.15 0.159-0.15 0.0364 0 0.0662 0.0675 0.0662 0.15s-0.0715 0.15-0.159 0.15c-0.0874 0-0.117-0.0675-0.0661-0.15zm2.39-5.77c-0.132-0.202-0.218-0.488-0.19-0.634 0.0337-0.175 0.137-0.0494 0.3 0.368 0.281 0.716 0.244 0.807-0.111 0.266zm-4.57 0.115c7e-5 -0.0672 0.125-0.45 0.277-0.85l0.277-0.728 0.323 0.411c0.178 0.226 0.323 0.457 0.323 0.513 0 0.0562-0.27 0.254-0.6 0.439s-0.6 0.282-0.6 0.215zm2.47-3.18c-0.594-0.126-0.75-0.749-0.609-2.43l0.106-1.27h1.18l5e-3 0.678c3e-3 0.373 0.104 0.809 0.224 0.968 0.193 0.255 0.192 0.332-5e-3 0.632-0.123 0.188-0.224 0.615-0.224 0.947 0 0.333-0.0506 0.597-0.112 0.588-0.0619-0.01-0.315-0.0608-0.562-0.114zm2.57-0.956c-0.144-0.538-0.109-1.91 0.0497-1.91 0.226 0 0.49 1.19 0.386 1.75-0.108 0.578-0.305 0.652-0.436 0.164zm-5.65-0.342c-0.388-0.628-0.325-0.984 0.305-1.71l0.448-0.519v0.46c0 0.867-0.193 2.3-0.309 2.3-0.064 0-0.264-0.238-0.444-0.53zm5.71-6.71c2e-3 -0.986 0.152-1.42 0.431-1.25 0.21 0.13 0.219 1.51 0.0115 1.9-0.285 0.533-0.445 0.299-0.442-0.647zm-5.23 0.26c-0.259-0.569-0.202-1.11 0.208-1.95l0.365-0.75-0.0865 1.42c-0.0942 1.55-0.215 1.87-0.487 1.27zm-1.98-5.01c0-0.25 0.419-0.652 0.577-0.554 0.263 0.163 0.207 0.297-0.203 0.487-0.206 0.0954-0.374 0.125-0.374 0.0662zm8.73-0.338c0.0779-0.234 0.413-0.274 0.425-0.0518 4e-3 0.0825-0.105 0.173-0.242 0.202-0.156 0.0324-0.225-0.0238-0.183-0.15zm-6.81-0.843c-0.302-0.472-0.516-0.893-0.476-0.933 0.158-0.159 1.1 1.06 1.1 1.42 0 0.207-0.0169 0.376-0.0375 0.374-0.0206-2e-3 -0.285-0.39-0.587-0.862zm7.97-0.71c-0.142-0.171-0.151-0.282-0.0326-0.4 0.228-0.228 0.666-0.0283 0.607 0.276-0.0674 0.347-0.34 0.406-0.575 0.124zm-0.911-13.6c0.0961-0.116 0.234-0.418 0.307-0.672 0.198-0.691-0.189-1.09-1.21-1.23-1.22-0.174-5.21-0.161-5.55 0.0181-0.449 0.24-0.346 0.659 0.305 1.25l0.595 0.537 1.69-0.0848c1.29-0.0648 1.83-0.0324 2.29 0.138 0.785 0.291 1.35 0.308 1.56 0.047zm2.34-2.04c1.19-1.43 1.63-3.09 1.53-5.78-0.0903-2.46-0.375-3.26-1.03-2.92-0.142 0.0761-0.335 0.37-0.428 0.653-0.0933 0.283-0.275 0.601-0.403 0.708-0.197 0.164-0.294 0.121-0.63-0.278-0.352-0.419-0.514-0.483-1.45-0.574-1.48-0.145-1.53-0.201-0.818-0.898l0.609-0.594 1.32 0.0432c1.66 0.0544 1.77-0.0337 1.51-1.27-0.0984-0.478-0.306-1.21-0.462-1.62-0.361-0.955-0.357-1.31 0.0166-1.65 0.385-0.348 0.376-0.58-0.055-1.51-0.475-1.02-1.06-1.48-2.2-1.72-1.56-0.33-3.78 0.158-4.52 0.997-0.137 0.153-0.425 0.717-0.642 1.25-0.501 1.24-0.857 1.77-2.27 3.39-1.36 1.56-1.74 2.37-2 4.25-0.107 0.775-0.323 1.78-0.48 2.24-0.388 1.13-0.381 2.7 0.0154 3.48 0.165 0.323 0.3 0.722 0.3 0.886s0.15 0.403 0.333 0.531c0.598 0.419 1.06 0.285 2.28-0.66 1.1-0.851 2.45-1.51 3.09-1.51 0.165 0 0.472 0.113 0.684 0.252 0.361 0.237 0.414 0.235 0.895-0.0237 0.442-0.238 0.592-0.251 1.11-0.0947 1.05 0.316 2.25 1.67 2.25 2.55 0 0.39 0.419 0.8 0.67 0.655 0.108-0.0624 0.45-0.417 0.759-0.788zm-4.19-7.01c-0.0814-0.214-0.0642-0.231 0.084-0.084 0.103 0.102 0.149 0.223 0.102 0.269-0.0462 0.0462-0.13-0.0371-0.186-0.185zm-6.23-0.632c-0.0861-0.161-0.157-0.636-0.157-1.06 0-0.687 0.0398-0.779 0.395-0.914 0.217-0.0826 0.532-0.107 0.699-0.0534 0.297 0.0942 0.297 0.101 0.0177 0.254-0.673 0.368-0.5 0.857 0.301 0.857 0.535 0 0.837-0.227 0.837-0.63 0-0.359 0.125-0.341 0.79 0.11 0.828 0.563 0.731 0.765-0.409 0.856-0.672 0.0539-1.18 0.199-1.64 0.473-0.656 0.385-0.679 0.387-0.831 0.103zm9.31-1.15c0.17-0.205 0.157-0.273-0.0853-0.45-0.157-0.115-0.428-0.209-0.603-0.209s-0.446 0.094-0.603 0.209c-0.243 0.177-0.255 0.245-0.0853 0.45 0.11 0.133 0.42 0.241 0.688 0.241s0.578-0.109 0.688-0.241zm29.7 63.1c0.124-0.0843 0.428-0.255 0.675-0.38l0.45-0.226-0.45 0.381c-0.248 0.21-0.551 0.38-0.675 0.38-0.2-1e-3 -0.2-0.0186 0-0.155zm1.8-3.22c0-0.257 0.521-0.825 0.758-0.825 0.0867 0-0.0226 0.236-0.243 0.525-0.447 0.586-0.515 0.625-0.515 0.3zm-0.75-3.94c0-0.233 3.07-2.43 3.4-2.43 0.452 0 0.131 0.339-1.11 1.17-1.49 1-2.29 1.44-2.29 1.26zm6.01-4.32c7e-3 -0.175 0.0427-0.21 0.0906-0.0906 0.0433 0.108 0.038 0.238-0.0118 0.288-0.0498 0.0498-0.0853-0.0387-0.0788-0.197zm-83.9-27.4c-0.047-0.206-0.166-0.746-0.264-1.2-0.22-1.02-0.804-2.34-1.86-4.2-0.706-1.25-1.29-2.72-1.28-3.21 3e-3 -0.0882 0.476 0.797 1.05 1.97 0.72 1.46 1.28 2.38 1.79 2.95 0.784 0.857 1.81 1.45 2.51 1.45 0.322 2e-3 0.364 0.0345 0.189 0.148-0.124 0.08-0.403 0.146-0.621 0.148-0.658 4e-3 -1.05 0.457-1.26 1.44-0.146 0.705-0.202 0.811-0.269 0.513zm7.41-1.74c-0.118-0.402-0.374-0.891-0.569-1.09-0.314-0.314-0.445-0.344-1.14-0.26-0.738 0.0897-0.764 0.0814-0.481-0.149 0.165-0.134 0.744-0.47 1.29-0.746 1.16-0.589 1.83-1.3 2.4-2.54 0.23-0.498 0.422-0.835 0.426-0.749 0.0204 0.463-0.502 1.97-0.996 2.86-0.48 0.873-0.577 1.21-0.644 2.21l-0.0784 1.19-0.214-0.731zm1.29-7.32c-0.472-0.473-0.649-0.56-0.996-0.491-0.408 0.0816-0.663-0.0805-0.966-0.613-0.0799-0.14-0.0201-0.155 0.24-0.0566 0.627 0.236 0.987-0.0417 1.26-0.969 0.282-0.969 0.345-0.931 0.822 0.491 0.18 0.538 0.292 1.2 0.265 1.57l-0.0466 0.643-0.574-0.575zm-12.7-0.73c-0.178-0.351-0.589-0.956-0.913-1.35-0.475-0.57-0.579-0.803-0.535-1.2l0.0543-0.492 0.191 0.45c0.105 0.248 0.313 0.585 0.463 0.75s0.324 0.469 0.386 0.675c0.062 0.206 0.272 0.566 0.467 0.799 0.31 0.37 0.488 1 0.283 1-0.0396 0-0.217-0.287-0.395-0.638zm10.2-1.36c-0.06-0.148-0.0666-0.867-0.0147-1.6 0.0915-1.29 0.0827-1.34-0.295-1.72-0.415-0.415-1.09-0.514-1.61-0.234-0.265 0.142-0.29 0.102-0.29-0.45 0-0.668 0.0745-0.716 0.568-0.371 0.422 0.296 0.897 0.157 1.12-0.326 0.0917-0.201 0.228-0.345 0.304-0.32 0.0754 0.0251 0.411 0.571 0.746 1.21 0.597 1.14 0.603 1.17 0.309 1.38-0.275 0.193-0.554 1.14-0.681 2.32-0.034 0.315-0.0579 0.332-0.149 0.106zm-9.1-1.19c-0.243-0.351-0.577-0.812-0.741-1.02-0.298-0.386-0.298-0.388-3e-3 -0.641 0.235-0.201 0.278-0.369 0.206-0.813-0.085-0.526-0.0764-0.541 0.144-0.267 0.129 0.16 0.437 0.816 0.684 1.46 0.71 1.84 0.559 2.51-0.291 1.29zm3.59-0.862c0-0.0825 0.171-0.15 0.38-0.15 0.528 0 1.36-0.37 1.54-0.682 0.0801-0.143 0.222-0.213 0.315-0.155 0.332 0.205 0.158 0.409-0.66 0.77-0.858 0.38-1.57 0.478-1.57 0.217zm-1.01-1.54c-0.0799-0.103-0.435-0.719-0.789-1.37-0.354-0.649-0.849-1.41-1.1-1.7-0.502-0.572-0.402-0.788 0.366-0.792 0.32-2e-3 0.394 0.0674 0.394 0.372 0 0.206 0.269 0.729 0.598 1.16 0.506 0.667 0.939 1.75 0.939 2.35 0 0.216-0.231 0.2-0.408-0.0289zm1.69-2.2c-0.208-0.0813-0.304-0.279-0.33-0.676-0.0311-0.486-6e-3 -0.536 0.191-0.373 0.214 0.177 0.657 0.922 0.657 1.1 0 0.106-0.151 0.0902-0.519-0.0535z"/>
		</g>
	</g>
</svg>
