<?xml version="1.0" encoding="UTF-8" standalone="no"?>
<!-- Created with Inkscape (http://www.inkscape.org/) -->

<svg
   xmlns:osb="http://www.openswatchbook.org/uri/2009/osb"
   xmlns:dc="http://purl.org/dc/elements/1.1/"
   xmlns:cc="http://creativecommons.org/ns#"
   xmlns:rdf="http://www.w3.org/1999/02/22-rdf-syntax-ns#"
   xmlns:svg="http://www.w3.org/2000/svg"
   xmlns="http://www.w3.org/2000/svg"
   xmlns:sodipodi="http://sodipodi.sourceforge.net/DTD/sodipodi-0.dtd"
   xmlns:inkscape="http://www.inkscape.org/namespaces/inkscape"
   width="27.4mm"
   height="29.320747mm"
   viewBox="0 0 97.086613 103.89241"
   id="svg2"
   version="1.1"
   inkscape:version="0.92.1 r"
   sodipodi:docname="stignucius.src.svg">
  <defs
     id="defs4">
    <linearGradient
       id="linearGradient4203"
       osb:paint="solid">
      <stop
         style="stop-color:#000000;stop-opacity:1;"
         offset="0"
         id="stop4205" />
    </linearGradient>
    <filter
       style="color-interpolation-filters:sRGB;"
       inkscape:label="Drop Shadow"
       id="filter4762">
      <feFlood
         flood-opacity="0.14902"
         flood-color="rgb(255,255,255)"
         result="flood"
         id="feFlood4752" />
      <feComposite
         in="flood"
         in2="SourceGraphic"
         operator="in"
         result="composite1"
         id="feComposite4754" />
      <feGaussianBlur
         in="composite1"
         stdDeviation="1"
         result="blur"
         id="feGaussianBlur4756" />
      <feOffset
         dx="0"
         dy="0"
         result="offset"
         id="feOffset4758" />
      <feComposite
         in="SourceGraphic"
         in2="offset"
         operator="over"
         result="composite2"
         id="feComposite4760" />
    </filter>
  </defs>
  <sodipodi:namedview
     id="base"
     pagecolor="#2e2e2e"
     bordercolor="#666666"
     borderopacity="1.0"
     inkscape:pageopacity="0"
     inkscape:pageshadow="2"
     inkscape:zoom="5.6"
     inkscape:cx="44.886071"
     inkscape:cy="51.585584"
     inkscape:document-units="px"
     inkscape:current-layer="layer1"
     showgrid="false"
     inkscape:window-width="1920"
     inkscape:window-height="1080"
     inkscape:window-x="0"
     inkscape:window-y="0"
     inkscape:window-maximized="1"
     fit-margin-top="1"
     fit-margin-left="1"
     fit-margin-right="1"
     fit-margin-bottom="1"
     borderlayer="false"
     inkscape:snap-grids="false" />
  <metadata
     id="metadata7">
    <rdf:RDF>
      <cc:Work
         rdf:about="">
        <dc:format>image/svg+xml</dc:format>
        <dc:type
           rdf:resource="http://purl.org/dc/dcmitype/StillImage" />
        <dc:title />
      </cc:Work>
    </rdf:RDF>
  </metadata>
  <g
     inkscape:label="Calque 1"
     inkscape:groupmode="layer"
     id="layer1">
    <g
       id="ring"
       inkscape:label="#g4660"
       transform="translate(51.060268,21.629465)">
      <path
         style="fill:#ffffff;fill-opacity:1"
         d="m 0.34432,-13.683763 c -2.67978,0.0935 -5.50408,0.35978 -7.88671,1.58984 -3.31933,1.71364 -6.27148,4.45432 -8.16602,7.67383 -0.83216,1.41413 -1.28008,3.13435 -1.20508,4.77344 0.10959,2.39483 1.02778,4.81093 2.39063,6.7832 1.10685,1.60179 2.73336,2.86634 4.45703,3.77734 l 3.43555,-5.67382 c -0.17735,-0.11563 -0.36429,-0.21875 -0.53516,-0.3418 -1.2626,-0.90925 -2.40122,-2.10379 -3.08789,-3.5 -0.2192,-0.44562 -0.29541,-0.96645 -0.28321,-1.46289 0.0177,-0.71911 0.16379,-1.46829 0.51563,-2.0957 0.83439,-1.48791 2.20102,-2.66364 3.60352,-3.63477 0.77832,-0.53893 1.66294,-0.97913 2.59179,-1.16211 3.1474,-0.62003 6.65208,-0.9078 9.61719,0.31641 2.31983,0.9578 4.81802,2.71969 5.50781,5.13281 0.51927,1.81657 -0.25159,4.03425 -1.47656,5.47266 -0.6118,0.7184 -1.40345,1.22988 -2.27539,1.6289 l 1.63086,6.44141 c 0.21854,-0.0729 0.44367,-0.13278 0.66015,-0.20899 1.60733,-0.56584 3.22621,-1.30942 4.48047,-2.46289 1.78933,-1.64554 3.33041,-3.74707 4.03321,-6.07422 0.63214,-2.09318 0.66287,-4.47627 0.002,-6.56054 -0.50178,-1.58241 -1.73945,-2.85379 -2.87109,-4.06836 -1.23159,-1.32184 -2.64309,-2.50521 -4.19532,-3.42969 -1.6483,-0.9817 -3.47172,-1.69201 -5.32617,-2.18359 -1.8252,-0.48382 -3.7301,-0.79627 -5.61719,-0.73047 z"
         id="path4195-3"
         inkscape:connector-curvature="0"
         sodipodi:nodetypes="cssssccsccssssssccssssssssc" />
      <path
         style="fill:#ffffff;fill-opacity:0.54216865"
         d="m 0.44058,-14.057643 c -2.86712,0.11329 -5.88083,0.44454 -8.42187,1.77734 -3.23395,1.69623 -6.11608,4.3763 -7.95508,7.53125 -0.86356,1.4815 -1.32058,3.2813 -1.23828,4.99414 0.11506,2.39457 0.99829,4.83163 2.39062,6.7832 1.15342,1.61669 2.83765,2.84633 4.60547,3.78711 l 3.60352,-5.94726 c -0.1464,-0.0951 -0.3008,-0.18012 -0.44336,-0.2793 -1.26286,-0.87863 -2.47657,-1.97639 -3.18164,-3.34375 -0.2276,-0.44137 -0.29736,-0.96645 -0.28516,-1.46289 0.0177,-0.71911 0.16379,-1.4683 0.51563,-2.0957 0.8344,-1.48791 2.20102,-2.66169 3.60351,-3.63282 0.77833,-0.53894 1.66285,-0.9816 2.5918,-1.16406 3.04455,-0.59802 6.42851,-0.85227 9.30273,0.31641 2.32606,0.94579 4.85515,2.66332 5.57031,5.07031 0.50897,1.71299 -0.21346,3.81012 -1.34961,5.18945 -0.58692,0.71255 -1.34556,1.24039 -2.18359,1.66016 l 1.70899,6.76172 c 0.12942,-0.0445 0.2639,-0.0793 0.39257,-0.125 1.60575,-0.57027 3.20826,-1.32925 4.48047,-2.46289 1.86814,-1.66466 3.5848,-3.73543 4.34571,-6.11914 0.66491,-2.083 0.66287,-4.47628 0.002,-6.56055 -0.50178,-1.58241 -1.75893,-2.83592 -2.8711,-4.06836 -1.25659,-1.39249 -2.64423,-2.71195 -4.24023,-3.69726 -1.63245,-1.00782 -3.47172,-1.69202 -5.32617,-2.1836 -1.8252,-0.48382 -3.73042,-0.80301 -5.61719,-0.72851 z"
         id="path4195-3-6"
         inkscape:connector-curvature="0"
         sodipodi:nodetypes="csssscccccsssssscccssssssc" />
      <path
         style="fill:#ffffff;fill-opacity:0.50301208"
         d="m -0.5552,-14.325903 c -1.1526,0.0333 -2.27489,0.15402 -3.34179,0.36328 -6.78433,1.33065 -15.08121,9.03795 -13.48047,15.76367 0.97916,4.11405 3.27986,7.41008 6.89453,9.48047 l 3.83398,-6.33008 c -1.73695,-1.08302 -2.98804,-2.59053 -3.33984,-4.45117 -0.8413,-4.4495 5.65593,-7.95193 11.25391,-7.60742 12.34342,0.75965 10.55024,9.19766 6.98633,11.70117 -0.21619,0.15186 -0.44936,0.27625 -0.67579,0.41211 l 1.85547,7.34375 c 5.57437,-1.7686 11.54389,-8.00512 9.86328,-14.35547 -2.24134,-8.46919 -11.78138,-12.55304 -19.84961,-12.32031 z"
         id="path4195-3-1"
         inkscape:connector-curvature="0"
         sodipodi:nodetypes="sssccsscccss" />
    </g>
    <g
       id="g4606"
       style="filter:url(#filter4762)">
      <path
         style="fill:#ffffff;fill-opacity:0"
         d="m 3.75002,55.34933 v -45.825 h 45 45 v 45.825 45.825 h -45 -45 z"
         id="path4201-5"
         inkscape:connector-curvature="0" />
      <path
         style="fill:#000000;fill-opacity:0.43630581"
         d="m 22.38434,100.83722 c -0.4041,-0.49605 -0.53669,-2.56979 -0.56348,-8.81289 -0.0521,-12.14136 -0.32196,-20.71112 -0.66292,-21.05208 -0.0789,-0.0789 -0.51439,-0.0672 -1.05694,0.0284 -1.6158,0.28461 -4.2665,-0.22834 -5.51414,-1.06708 C 13.55149,69.23752 10.47479,63.86227 9.81739,61.60088 9.68867,61.15811 9.48778,59.50288 9.37096,57.92259 9.08056,53.99393 8.93741,53.48523 7.27499,50.47434 6.75115,49.52559 6.18537,48.29594 6.0177,47.74178 5.63019,46.4611 5.38407,45.98285 4.48111,44.75599 3.68687,43.67684 3.59163,43.21708 3.94948,42.18964 c 0.25615,-0.73544 0.29356,-0.76416 1.11934,-0.8591 0.79217,-0.0911 0.8037,-0.1246 0.59858,-1.7394 -0.11466,-0.9027 0.0515,-1.31718 0.3876,-0.9668 0.21969,0.22903 1.89502,4.31056 1.89502,4.61676 0,0.0923 0.17047,0.35173 0.37882,0.57654 0.44978,0.48531 0.415,0.71482 -0.11793,0.7782 -0.7485,0.089 -1.40201,-0.42259 -2.26281,-1.7715 -0.23417,-0.36695 -0.44613,-0.525 -0.70405,-0.525 -0.51422,0 -0.54923,0.4837 -0.0819,1.13097 0.20612,0.28547 0.4685,0.72153 0.58306,0.96903 0.11457,0.2475 0.32,0.54264 0.45653,0.65587 0.13653,0.11322 0.24824,0.29649 0.24824,0.40726 0,0.41258 0.51108,1.69168 1.4032,3.51187 1.17473,2.39678 2.1209,3.44526 3.45574,3.82938 1.19948,0.34517 1.90563,0.22519 2.93121,-0.49807 0.4602,-0.32454 1.25038,-0.79889 1.75596,-1.05411 1.43469,-0.72423 2.45389,-2.17703 2.45389,-3.49785 0,-0.52085 -0.67368,-1.17935 -1.20654,-1.17935 -0.46551,0 -1.17645,-0.70616 -1.63746,-1.62646 -0.29204,-0.58298 -0.31536,-0.79176 -0.22191,-1.98642 0.11727,-1.49897 0.006,-1.78712 -0.69095,-1.78712 -0.23107,0 -0.61288,0.16219 -0.84846,0.36043 -0.64406,0.54194 -2.24223,1.31108 -2.91047,1.40071 -0.68429,0.0918 -1.18421,-0.24313 -1.18421,-0.79334 0,-0.18464 -0.0958,-0.37247 -0.21293,-0.41741 C 9.41994,41.67983 9.04123,41.14944 8.69547,40.54618 7.37789,38.24735 7.14157,37.89377 6.80081,37.7114 c -1.37512,-0.73593 1.64915,-1.75973 3.31684,-1.12283 0.89269,0.34092 1.45718,1.02205 1.95207,2.35541 0.904,2.43561 1.12871,2.61599 1.13247,0.90901 0.002,-1.10727 0.21003,-1.66293 0.68619,-1.83675 0.55883,-0.20399 0.73841,0.0663 0.37268,0.56103 -0.35135,0.47524 -0.30186,0.86117 0.14082,1.09809 0.34258,0.18334 0.62487,-0.1353 0.65526,-0.73964 0.0122,-0.24239 0.0714,-0.48995 0.13158,-0.55012 0.19903,-0.19903 0.7365,0.44793 1.31989,1.58874 0.31641,0.61875 0.71347,1.3275 0.88234,1.575 0.38887,0.56991 0.3869,0.59137 -0.0738,0.80126 -0.71912,0.32765 -1.09033,1.97919 -0.56331,2.50621 0.23852,0.23853 0.26926,0.23491 0.5078,-0.0597 0.13964,-0.17246 0.34202,-0.75686 0.44971,-1.29868 0.26122,-1.31421 0.502,-1.23682 1.16937,0.37587 0.51558,1.24589 0.52781,1.323 0.53592,3.37762 l 0.008,2.10263 -0.72231,1.41314 c -0.86989,1.70186 -1.0446,2.47968 -0.78326,3.48715 0.29752,1.14699 1.19072,1.91946 2.21945,1.91946 0.66626,0 1.53138,-0.53577 4.98786,-3.08899 4.34945,-3.21285 6.54551,-4.61773 7.94826,-5.08473 0.7697,-0.25624 1.3425,-0.55148 1.59739,-0.82334 0.70378,-0.75064 1.58304,-2.44546 1.90808,-3.67794 0.17407,-0.66 0.40742,-1.53122 0.51856,-1.93604 0.13756,-0.50102 0.16124,-0.93207 0.0742,-1.35 -0.29487,-1.41533 -0.30691,-2.27939 -0.0479,-3.44338 0.44466,-1.99867 0.19817,-3.33437 0.53086,-4.96533 0.30207,-1.4809 0.68524,-2.96651 1.3223,-4.33708 0.52662,-1.13295 1.27071,-2.15936 2.03609,-3.14684 0.54628,-0.70479 1.1053,-1.42444 1.8126,-1.96747 2.38026,-1.82743 4.42747,-3.65627 7.97198,-4.18254 1.54808,-0.22986 3.22502,0.20134 4.7167,0.75882 1.51715,0.56701 2.87564,1.53608 4.12755,2.56367 0.75678,0.62119 1.47344,1.32387 2.00638,2.1452 0.64632,0.99606 0.94938,2.17729 1.38452,3.28206 0.55461,1.40809 1.27584,2.77689 1.56204,4.26296 0.17518,0.90962 0.0568,1.85181 0.0814,2.77783 0.015,0.56333 0.0404,1.6901 0.0404,1.6901 -0.004,0.85142 -0.0641,2.06721 -0.13349,2.70176 -0.10937,1.00014 -0.085,1.25971 0.18315,1.95 0.17013,0.43795 0.34073,1.12307 0.37911,1.52248 0.0473,0.49164 0.20848,0.90812 0.49917,1.28941 0.23616,0.30976 0.77134,1.01583 1.18929,1.56904 0.41794,0.55321 1.48891,2.35903 2.37992,4.01292 2.27895,4.23021 3.73926,6.64518 4.70291,7.77743 0.96801,1.13736 1.78295,2.75258 1.97243,3.90934 0.0735,0.44861 0.24556,1.11941 0.38239,1.49066 0.13682,0.37125 0.38919,1.11375 0.56082,1.65 0.63772,1.99259 0.79629,2.33886 1.34425,2.93544 0.30838,0.33574 1.04406,1.48324 1.63484,2.55 l 1.07415,1.93956 -0.10125,1.6106 c -0.0855,1.35974 -0.0608,1.69583 0.15839,2.15773 0.28066,0.59146 1.39952,1.40667 1.93061,1.40667 0.34821,0 0.67563,0.26119 0.67563,0.53895 0,0.52881 -0.57005,0.37745 -7.05,-1.87192 -3.41388,-1.18505 -3.80579,-1.26516 -4.7967,-0.98041 -1.14359,0.32862 -3.70561,1.88569 -9.6783,5.88201 l -5.1,3.41241 -0.11637,0.94157 c -0.33705,2.72709 0.64919,3.47208 12.38358,9.35429 7.38704,3.70297 7.55582,3.75134 9.04805,2.5926 1.07139,-0.83196 1.30245,-0.8951 2.5075,-0.68525 1.30516,0.22728 2.26136,0.20775 2.90038,-0.0593 0.29618,-0.12375 0.76012,-0.225 1.03099,-0.225 0.34433,0 0.68393,-0.15995 1.12887,-0.53168 1.34214,-1.12133 2.47611,-1.54973 2.65605,-1.00342 0.21223,0.64434 -3.72944,2.7351 -5.15644,2.7351 -0.97798,0 -1.94392,0.34913 -2.46154,0.88968 -0.56007,0.58489 -0.75483,1.09019 -1.07361,2.78532 l -0.19746,1.05 -28.51881,0.0379 c -22.70157,0.0302 -28.55004,-4.5e-4 -28.67187,-0.15 z M 52.242,83.94837 c 0.30449,-0.39927 0.69583,-1.04743 0.86963,-1.44035 0.39677,-0.89697 0.31777,-1.38358 -0.48328,-2.97678 -0.32889,-0.65413 -0.56551,-1.27396 -0.52582,-1.3774 0.0397,-0.10343 0.53349,-0.4403 1.09733,-0.7486 1.80902,-0.98915 1.89734,-1.21345 0.90559,-2.29983 -1.18796,-1.30131 -1.45543,-1.69544 -1.45543,-2.14469 0,-0.48655 0.58825,-1.50976 0.825,-1.435 0.0825,0.026 0.18685,0.37951 0.23188,0.78548 0.13631,1.22873 1.59951,3.36313 2.30554,3.36313 0.59976,0 1.58758,-2.24785 1.58758,-3.61267 0,-0.64646 -0.0856,-0.88874 -0.52589,-1.48854 -0.48976,-0.66718 -0.97411,-1.62074 -0.97411,-1.91775 0,-0.0707 0.30312,-0.51895 0.67359,-0.99605 0.77454,-0.99746 1.04366,-1.81431 0.92604,-2.8108 -0.0879,-0.74473 -0.66913,-2.03765 -1.06293,-2.36448 -0.35889,-0.29785 -0.28554,-0.87215 0.21538,-1.68626 0.43422,-0.7057 0.65442,-1.38383 0.82312,-2.53489 0.12931,-0.88232 0.34973,-1.05408 1.51722,-1.18224 1.62574,-0.17846 2.28684,-0.69539 2.42191,-1.89375 0.0778,-0.68985 0.0711,-0.70398 -0.28979,-0.61341 -0.48184,0.12094 -0.96866,-0.22506 -1.24407,-0.88419 -0.21106,-0.50515 -0.23225,-0.51497 -1.11131,-0.51497 -0.74217,0 -0.97439,0.0658 -1.35158,0.38323 -0.58477,0.49205 -3.24302,1.56343 -3.88379,1.56532 -0.63532,0.002 -0.77307,0.34363 -0.93778,2.32645 -0.0685,0.825 -0.15753,1.60125 -0.19778,1.725 -0.0403,0.12375 -0.11567,0.4179 -0.16762,0.65367 -0.079,0.35839 -0.15515,0.41706 -0.46478,0.35787 -0.29103,-0.0556 -0.38876,0.003 -0.45637,0.27197 -0.13191,0.52558 -0.0119,0.88231 0.31726,0.94341 0.6133,0.11384 0.67328,0.29683 0.67328,2.05418 0,0.9319 -0.041,1.80114 -0.091,1.93163 -0.11762,0.30652 -0.48782,0.30289 -0.83151,-0.008 -0.24381,-0.22065 -0.28027,-0.22175 -0.36117,-0.0109 -0.15248,0.39735 -0.006,0.93706 0.23729,0.87237 0.73473,-0.19563 0.81983,-0.12322 0.86259,0.73396 0.0226,0.45375 0.1511,1.03508 0.28548,1.29183 0.22618,0.43215 0.22591,0.49314 -0.004,0.82088 -0.1571,0.2243 -0.24879,0.65789 -0.25019,1.18317 -0.003,0.97384 -0.26217,1.57912 -0.67722,1.57912 -0.28333,0 -0.32924,-0.15419 -0.20098,-0.675 0.0369,-0.14997 -0.0769,-0.24033 -0.34149,-0.27096 -0.75123,-0.087 -0.95515,-0.51389 -0.93483,-1.95699 0.0101,-0.71338 0.036,-3.88443 0.0577,-7.04678 0.0459,-6.69948 0.16909,-6.18265 -1.69881,-7.12714 -1.33672,-0.67591 -1.82285,-0.66732 -0.76204,0.0134 0.40421,0.2594 0.97117,0.71522 1.25992,1.01294 l 0.525,0.54131 0.042,2.42958 c 0.0474,2.74417 -0.21725,5.12958 -0.56914,5.12958 -0.28908,0 -0.86949,-0.89633 -0.9874,-1.52485 -0.0686,-0.36567 0.0179,-0.85395 0.29635,-1.67344 0.46339,-1.36362 0.52372,-2.7845 0.14953,-3.52165 -0.13402,-0.26403 -0.48009,-0.77187 -0.76903,-1.12853 l -0.52536,-0.64848 -0.4756,0.46098 c -0.28944,0.28053 -0.63221,0.46097 -0.87569,0.46097 -0.60033,0 -0.79398,0.47313 -0.49721,1.21481 0.13011,0.3252 0.23657,0.97535 0.23657,1.44478 0,0.54267 0.14592,1.26546 0.40064,1.9846 0.45997,1.29856 0.4201,1.69398 -0.24749,2.45431 -0.92471,1.05319 -0.94552,2.13325 -0.0689,3.57411 0.28364,0.46619 0.51571,1.00226 0.51571,1.19128 0,0.18901 -0.26291,0.78634 -0.58425,1.32739 -0.78499,1.32171 -0.97896,2.07987 -0.7752,3.02996 0.35975,1.6775 1.26277,2.58463 2.65632,2.66843 0.0945,0.006 0.39218,0.35367 0.66145,0.7733 0.26928,0.41963 0.85007,1.02926 1.29064,1.35473 0.44057,0.32547 0.79981,0.64026 0.79831,0.69954 -0.002,0.0593 -0.19367,0.38941 -0.42703,0.73365 -0.60528,0.89281 -0.85907,2.20356 -0.61978,3.201 0.14702,0.61287 0.37554,0.97873 1.08509,1.73724 0.49437,0.52848 1.01224,0.96087 1.15083,0.96087 0.13859,0 0.50111,-0.32668 0.8056,-0.72595 z m -1.73421,-4.41154 c -0.116,-0.3235 0.1878,-0.7125 0.55646,-0.7125 0.40931,0 0.61921,0.39372 0.36999,0.69401 -0.21366,0.25745 -0.83631,0.26988 -0.92645,0.0185 z m 2.00777,-4.09272 c -0.41311,-0.47051 -0.62808,-1.11978 -0.37074,-1.11978 0.21177,0 1.12029,0.64584 1.33031,0.94568 0.59421,0.84835 -0.23541,0.99887 -0.95957,0.1741 z M 48.0782,74.17948 c -0.0492,-0.0797 0.0489,-0.41613 0.21801,-0.74767 0.16914,-0.33155 0.36007,-0.85699 0.42428,-1.16765 0.1648,-0.79732 0.60151,-0.82931 1.21191,-0.0888 0.68576,0.83194 0.62047,1.08805 -0.42355,1.66145 -0.91939,0.50496 -1.27735,0.59069 -1.43065,0.34265 z m 6.89274,-3.46175 c -0.13245,-0.21431 0.33292,-0.8934 0.61225,-0.8934 0.31288,0 0.42307,0.36464 0.2231,0.73828 -0.17579,0.32847 -0.67134,0.42049 -0.83535,0.15512 z m -6.62286,-0.62802 c -0.1703,-0.18721 -0.4954,-0.62634 -0.72244,-0.97584 -0.40546,-0.62417 -0.40805,-0.64283 -0.14602,-1.05 0.5395,-0.83832 1.45489,-1.83954 1.68184,-1.83954 0.20259,0 0.22126,0.21346 0.14102,1.6125 -0.13958,2.43346 -0.34627,2.92137 -0.9544,2.25288 z m 5.18906,0.0941 c -0.30633,-0.3691 -0.37426,-2.90144 -0.0881,-3.28249 0.2206,-0.29369 0.22842,-0.29385 0.54087,-0.0111 0.4073,0.3686 0.81571,1.76541 0.69865,2.38943 -0.1085,0.57833 -0.48141,1.14468 -0.75373,1.14468 -0.10897,0 -0.28795,-0.10823 -0.39774,-0.24052 z m 1.81895,-2.52717 c -0.13815,-0.16646 -0.11759,-0.24118 0.0967,-0.35158 0.29648,-0.1527 0.64719,-0.0842 0.64719,0.12649 0,0.0727 -0.12791,0.20068 -0.28425,0.28435 -0.20901,0.11186 -0.33069,0.0962 -0.45968,-0.0593 z m -1.81932,-4.09215 c -0.33717,-0.88682 0.0971,-3.04016 0.61308,-3.04016 0.3469,0 0.75017,0.82045 0.75017,1.52621 0,1.45201 -0.97509,2.53489 -1.36325,1.51395 z m 1.88828,0.25989 c -0.0568,-0.0919 -0.0608,-0.3364 -0.009,-0.54331 0.0708,-0.282 0.17762,-0.36439 0.42663,-0.32898 0.47534,0.0676 0.48299,0.92575 0.009,0.99332 -0.17784,0.0253 -0.36983,-0.0291 -0.42663,-0.12103 z m -8.92503,-0.284 c 0,-0.31622 0.38847,-0.53696 0.53311,-0.30293 0.10092,0.16329 -0.18885,0.58688 -0.40148,0.58688 -0.0724,0 -0.13163,-0.12778 -0.13163,-0.28395 z m -0.44753,-5.37855 c 0.004,-0.44868 0.66363,-1.46003 0.98208,-1.50624 0.3668,-0.0532 1.01272,0.59332 0.94152,0.94245 -0.0303,0.14873 -0.38383,0.36741 -0.87031,0.53838 -1.00309,0.35252 -1.05638,0.35381 -1.05329,0.0254 z m 8.94753,-0.2875 c -0.34165,-0.34165 0.14964,-1.25 0.67606,-1.25 0.29443,0 0.72394,0.47643 0.72394,0.80302 0,0.37653 -1.1146,0.73238 -1.4,0.44698 z m -1.39943,-0.73456 c -0.0495,-0.12901 -0.0129,-0.40382 0.0814,-0.61068 0.21067,-0.46236 0.67262,-0.42032 0.74208,0.0675 0.0879,0.61764 -0.61654,1.08232 -0.82344,0.54315 z m 2.74466,-0.97633 c -0.48288,-0.37983 -0.50608,-0.79446 -0.0618,-1.1056 0.9182,-0.64314 1.80373,0.32938 1.01662,1.11649 -0.37505,0.37505 -0.46545,0.37402 -0.95477,-0.0109 z m 2.07911,0.01 c -0.11389,-0.18428 0.29893,-0.36407 0.52092,-0.22687 0.0878,0.0543 0.1208,0.16149 0.0733,0.23829 -0.11448,0.18525 -0.47701,0.17828 -0.59425,-0.0114 z M 20.02502,66.74348 c 0.4125,-0.14231 0.93562,-0.43118 1.1625,-0.64193 0.38532,-0.35793 0.4125,-0.46424 0.4125,-1.61333 0,-2.33274 -1.17966,-5.38702 -2.49573,-6.46175 -0.89245,-0.7288 -1.74081,-2.0308 -2.16544,-3.3234 -0.48316,-1.47076 -0.69454,-1.82858 -1.08018,-1.82852 -0.18351,2e-5 -0.99453,0.23627 -1.80227,0.525 -0.80774,0.28872 -1.65149,0.52533 -1.875,0.52579 -0.22351,4.5e-4 -0.6549,0.0699 -0.95864,0.15422 -0.81074,0.22518 -0.9324,0.73155 -0.8245,3.4316 0.13595,3.40176 0.71561,5.23386 2.40991,7.61694 0.79128,1.11296 1.4125,1.58238 2.43387,1.83913 0.88555,0.2226 3.8976,0.0817 4.78298,-0.22375 z m 31.875,-10.49398 c 0,-0.12375 -0.10125,-0.225 -0.225,-0.225 -0.23424,0 -0.2976,0.17741 -0.125,0.35 0.17259,0.1726 0.35,0.10924 0.35,-0.125 z m 1.02422,-2.08111 c 0.35707,-0.34039 1.05169,-1.21804 1.5436,-1.95034 0.85284,-1.26961 0.8825,-1.34457 0.63868,-1.61399 -0.14064,-0.1554 -0.59077,-0.38205 -1.00031,-0.50367 -0.7114,-0.21127 -0.79515,-0.20368 -1.87817,0.17013 -1.10899,0.38277 -1.15033,0.38597 -1.90648,0.14762 -0.84474,-0.26628 -2.10346,-0.32515 -2.23968,-0.10474 -0.0959,0.15519 0.25245,1.26314 0.69245,2.2023 0.45212,0.96501 1.61195,2.16502 2.22569,2.30279 0.78512,0.17625 1.20682,0.0338 1.92422,-0.6501 z m 2.41893,-12.46063 c 0.0989,-0.11921 0.15782,-0.37143 0.13086,-0.56048 -0.066,-0.46288 -0.64471,-0.55328 -3.61151,-0.56413 -2.5171,-0.009 -2.73089,0.0615 -2.04987,0.67778 0.27112,0.24536 0.57482,0.28475 2.2875,0.2967 1.09405,0.008 2.14213,0.0883 2.34987,0.18081 0.5126,0.22834 0.68304,0.22248 0.89315,-0.0307 z m -43.97166,-0.0958 c 0.60442,-0.2107 0.75142,-0.66124 0.35489,-1.08772 -0.16606,-0.17861 -0.36233,-0.56099 -0.43616,-0.84974 -0.10757,-0.42072 -0.22173,-0.54012 -0.57472,-0.60114 -0.40136,-0.0694 -0.44796,-0.141 -0.52446,-0.80615 -0.0939,-0.8162 -0.39953,-1.14271 -1.06971,-1.14271 -0.58654,0 -0.55001,0.3856 0.11773,1.24267 0.59441,0.76296 0.83298,1.44812 0.89915,2.58233 0.0241,0.4125 0.0478,0.76688 0.0528,0.7875 0.0237,0.0984 0.76472,0.0199 1.18051,-0.12504 z m 47.05873,-3.02699 c 0.63701,-1.41782 0.86451,-3.19664 0.63608,-4.97365 -0.10521,-0.8185 -0.26032,-1.51088 -0.34468,-1.53863 -0.0844,-0.0277 -0.28686,0.23694 -0.45,0.58818 -0.25523,0.54952 -0.36946,0.64555 -0.81861,0.68821 -0.41845,0.0397 -0.58488,-0.0293 -0.83901,-0.348 -0.31709,-0.39768 -1.0821,-0.66603 -1.91853,-0.673 -0.42564,-0.004 -0.4286,0.003 -0.32631,0.68475 0.0815,0.54372 0.0487,0.74855 -0.15622,0.975 -0.14269,0.15767 -0.30397,0.28667 -0.35841,0.28667 -0.14218,0 -0.60495,-1.01239 -0.60227,-1.31759 0.007,-0.8349 0.80206,-2.10485 1.64553,-2.62949 0.42761,-0.26597 0.75392,-0.32792 1.72721,-0.32792 h 1.2 l -0.0397,-0.49923 c -0.0218,-0.27458 -0.18166,-0.88208 -0.35521,-1.35 -0.43205,-1.16489 -0.52709,-2.30739 -0.21766,-2.61681 0.32776,-0.32776 0.29738,-0.72578 -0.10048,-1.31617 -0.60438,-0.89684 -1.1689,-1.10985 -2.86347,-1.08046 -1.21695,0.0211 -1.61678,0.0888 -2.18177,0.36925 -0.63741,0.31644 -0.75284,0.46716 -1.46933,1.91842 -0.57389,1.1624 -1.09455,1.93715 -1.9875,2.95743 -0.66546,0.76034 -1.20992,1.43891 -1.20992,1.50794 0,0.069 0.35437,0.12193 0.7875,0.11757 1.20974,-0.0122 2.17042,0.33179 2.91252,1.04285 0.37588,0.36015 0.64998,0.76014 0.64998,0.9485 0,0.17914 0.063,0.32571 0.13989,0.32571 0.24369,0 0.33379,0.57526 0.14596,0.93184 -0.2283,0.43341 -0.42571,0.56264 -0.69918,0.4577 -0.21426,-0.0822 -0.19497,-0.50945 0.0518,-1.1477 0.10313,-0.26672 0.0382,-0.27903 -1.11949,-0.21202 -0.91851,0.0532 -1.33264,0.1478 -1.63937,0.37457 -0.91814,0.67881 -1.42587,0.52613 -1.61572,-0.48587 -0.13703,-0.73043 -0.33331,-0.78036 -0.43319,-0.11019 -0.22599,1.51631 -0.44704,2.56281 -0.63795,3.02019 -0.32773,0.7852 -0.2842,2.12476 0.10268,3.15926 0.18573,0.49664 0.43061,0.98009 0.54418,1.07435 0.31458,0.26107 0.80294,0.0649 1.71039,-0.68711 1.16522,-0.9656 2.29716,-1.47803 3.225,-1.45995 0.4125,0.008 0.9525,0.0185 1.2,0.0232 0.2475,0.005 0.76034,0.002 1.13965,-0.006 0.37931,-0.008 0.89063,0.0898 1.13627,0.21685 0.68188,0.35261 1.49923,1.34477 1.79586,2.17992 l 0.26659,0.75063 0.48921,-0.47759 c 0.26907,-0.26267 0.664,-0.86662 0.87764,-1.34211 z m 29.5291,53.65547 c -0.14952,-0.59575 0.0371,-1.57897 0.36111,-1.90303 0.30955,-0.30955 2.07162,-0.86291 2.74778,-0.86291 0.38315,0 0.66922,0.33718 0.50774,0.59847 -0.0413,0.0668 -0.42961,0.20591 -0.86299,0.30921 -1.0725,0.25564 -1.41353,0.50928 -1.94069,1.44336 -0.5035,0.89215 -0.67163,0.97796 -0.81295,0.4149 z M 87.1658,87.61851 c -0.27629,-0.33291 -0.0505,-0.64129 1.10767,-1.51297 2.42336,-1.82387 3.30155,-2.14467 3.30155,-1.20604 0,0.40854 -0.17,0.56402 -1.84503,1.6875 -1.86268,1.24934 -2.25308,1.40638 -2.56419,1.03151 z m 2.98057,-0.0234 c -0.15794,-0.1903 -0.13105,-0.29255 0.15778,-0.6 0.63165,-0.67235 1.31394,-0.27707 0.82081,0.47554 -0.26519,0.40474 -0.70008,0.46005 -0.97859,0.12446 z m 3.21622,-4.3522 c -0.2356,-0.56388 -0.18233,-0.8184 0.17128,-0.8184 0.15618,0 0.21615,0.18729 0.21615,0.675 0,0.37125 -0.0372,0.675 -0.0827,0.675 -0.0455,0 -0.18261,-0.23922 -0.30478,-0.5316 z"
         id="path4199-6"
         inkscape:connector-curvature="0"
         sodipodi:nodetypes="csscsssscsscsssscsscccsssssssscsccscssssccccccscccsssccssssssccccaaaasaaaaaacsscssssccssscccssssscsssscsssssscsccccscsssccsssssssssscccscccccccsscccccsccsccccscsccssccsccscscscsssccscccsscccscccssssccsssccsscscsssscccccsccccssccsssscccccsssscccscsssscccccccscccccccsssssccccsssssscssscssscscsccccccccccsccsscccccscscccccscssccscsscssscsssscccssscsccccsccccccscscssssssssccsccssscc" />
      <path
         style="fill:#000000;fill-opacity:0.56626503"
         d="M 22.68845,100.75126 C 22.25868,100.47833 22.17653,98.92988 22.04959,88.70969 21.91337,77.74176 21.68691,71.201 21.43469,70.94933 21.35139,70.86623 20.43516,70.79499 19.37968,70.7896 16.79233,70.7764 15.18494,70.30405 14.22818,69.27582 12.99651,67.95214 10.382,63.00567 9.99186,61.26097 9.87359,60.73207 9.70382,59.15118 9.6146,57.74789 9.5254,56.3446 9.34918,54.7921 9.22304,54.29789 9.00183,53.43121 8.30987,51.92449 7.05899,49.58573 6.73141,48.97324 6.32821,48.02824 6.16299,47.48573 5.83851,46.42023 5.02285,44.95433 4.37774,44.27728 4.0543,43.93783 3.98059,43.72647 4.00107,43.19721 4.04447,42.07484 4.3083,41.72073 5.20762,41.57758 l 0.77968,-0.12411 0.044,-1.07707 0.044,-1.07707 0.50059,1.05 c 0.27533,0.5775 0.67508,1.59 0.88834,2.25 0.21326,0.66 0.52023,1.30847 0.68214,1.44104 0.47499,0.3889 0.0386,0.48342 -0.6381,0.13821 C 7.12101,43.98101 6.70455,43.56912 6.34063,43.02373 5.66452,42.01049 5.35882,41.78267 4.98745,42.01529 c -0.46217,0.2895 -0.41276,1.12309 0.10522,1.77488 0.2515,0.31648 0.45728,0.65828 0.45728,0.75956 0,0.10128 0.14073,0.36306 0.31274,0.58173 0.17201,0.21867 0.38078,0.64965 0.46393,0.95773 0.0831,0.30808 0.61174,1.51204 1.17464,2.67546 1.63599,3.38133 2.79857,4.40968 4.98527,4.40968 0.9664,0 1.24118,-0.10676 2.13842,-0.83084 0.33,-0.26632 1.005,-0.68846 1.5,-0.9381 1.4723,-0.74252 2.31031,-1.87333 2.56401,-3.45985 0.0955,-0.59731 0.0647,-0.67977 -0.45179,-1.20869 -0.42573,-0.436 -0.64107,-0.55107 -0.92842,-0.49614 -0.47228,0.0903 -0.93698,-0.32882 -1.40608,-1.2681 -0.37255,-0.74597 -0.39435,-0.97451 -0.22635,-2.37328 0.0918,-0.76411 0.0649,-0.95322 -0.17766,-1.2525 -0.42614,-0.52566 -1.23307,-0.4789 -1.9828,0.1149 -0.89339,0.70758 -2.16123,1.23919 -2.82466,1.18438 -0.87016,-0.0719 -0.72962,-0.43731 0.25333,-0.65868 0.82903,-0.18672 1.35218,-0.60724 1.35876,-1.09222 0.003,-0.18765 0.069,-0.16042 0.2808,0.11503 0.52602,0.68421 0.91586,0.094 0.91586,-1.38649 v -0.61309 l 0.41481,0.49688 c 0.54696,0.65517 1.08891,0.6123 1.32059,-0.10446 0.0882,-0.27294 0.22322,-0.50919 0.3,-0.525 0.12546,-0.0258 1.7146,2.82182 1.7146,3.07248 0,0.0569 -0.13118,0.14519 -0.29151,0.19608 -0.19656,0.0624 -0.37174,0.36849 -0.53782,0.93978 -0.36822,1.26664 -0.11133,2.13791 0.63035,2.13791 0.39856,0 0.6822,-0.49872 0.87815,-1.54403 0.0587,-0.31296 0.17325,-0.54683 0.25463,-0.5197 0.0814,0.0271 0.30796,0.44258 0.50351,0.92323 0.95841,2.35572 0.82635,4.61865 -0.41104,7.0437 -0.935,1.83242 -0.94157,3.21138 -0.0205,4.306 0.7827,0.93019 1.94834,1.14989 3.06861,0.57837 0.60765,-0.31 1.02254,-0.60175 5.54789,-3.90118 2.17947,-1.58906 3.37396,-2.40585 4.7513,-3.24894 0.30329,-0.18565 1.00431,-0.47456 1.55781,-0.64202 0.5535,-0.16747 1.20616,-0.47259 1.45035,-0.67807 0.56465,-0.47512 1.78061,-2.50647 1.97079,-3.29236 0.0799,-0.33 0.31446,-1.14402 0.52134,-1.80893 0.44141,-1.41867 0.45294,-1.66635 0.14033,-3.01428 -0.22525,-0.97128 -0.22075,-1.08956 0.1005,-2.6403 0.32597,-1.57349 0.18091,-1.92075 0.29756,-2.87817 0.1627,-1.33532 0.20872,-2.69815 0.561,-3.99639 0.20012,-0.73753 0.53788,-1.43305 0.87262,-2.12005 0.36796,-0.75517 0.77178,-1.49696 1.24415,-2.19162 0.69759,-1.02587 1.42568,-2.05409 2.3345,-2.89853 1.36078,-1.26437 2.91088,-2.36213 4.58462,-3.16769 1.31721,-0.63395 2.7432,-1.39499 4.1992,-1.2646 3.54321,0.31729 7.04842,2.27537 9.50943,4.8441 1.06504,1.11167 1.3033,2.78998 1.91825,4.20135 0.50021,1.14804 1.15416,2.25061 1.44046,3.46973 0.23305,0.99236 0.19721,2.03172 0.20728,3.05103 0.005,0.51339 -0.12889,0.88279 -0.074,1.53846 0.0472,0.56327 0.002,1.67702 -0.0999,2.475 -0.18037,1.40959 -0.17461,1.48411 0.20227,2.61803 0.21336,0.64192 0.38793,1.42109 0.38793,1.73149 0,0.46147 0.13915,0.72725 0.76326,1.45786 1.1523,1.34894 1.75404,2.29392 3.29121,5.16851 2.31115,4.32197 4.01991,7.10068 5.02053,8.16419 0.65234,0.69334 1.415,2.35801 1.65501,3.61241 0.11451,0.59851 0.37146,1.45735 0.57099,1.90852 0.19953,0.45118 0.47924,1.28598 0.62157,1.8551 0.31398,1.25549 0.35209,1.32987 1.17598,2.29508 0.36047,0.4223 1.07301,1.54903 1.58343,2.50383 l 0.92803,1.73601 -0.0295,1.74993 c -0.0236,1.39632 0.022,1.84904 0.22538,2.24039 0.29862,0.57457 1.27333,1.32319 1.90283,1.46145 0.38256,0.084 0.64253,0.37719 0.32881,0.3708 -0.0619,-0.001 -1.5975,-0.51519 -3.4125,-1.14207 -5.57268,-1.92473 -6.50493,-2.19191 -7.32408,-2.09908 -1.37716,0.15606 -2.52324,0.82174 -10.30092,5.98311 -2.59875,1.72457 -4.87688,3.30241 -5.0625,3.50632 -0.28601,0.31418 -0.3375,0.53959 -0.3375,1.47761 0,1.30753 0.15241,1.77698 0.7967,2.45399 1.09357,1.14911 3.23698,2.39019 10.6033,6.13956 6.25039,3.18137 7.71119,3.8184 8.79543,3.83553 0.70477,0.0111 0.84366,-0.0481 1.62973,-0.69525 0.96071,-0.79092 0.97675,-0.79365 3.10931,-0.52965 1.30074,0.16102 1.51746,0.15302 1.99259,-0.0736 0.29322,-0.13983 0.79672,-0.25423 1.11891,-0.25423 0.46869,0 0.72553,-0.12094 1.28487,-0.60505 1.28387,-1.11118 3.05567,-1.74002 1.91034,-0.67801 -0.82628,0.76617 -3.0197,1.66988 -4.74008,1.95295 -1.59026,0.26166 -1.89815,0.39131 -2.46644,1.03856 -0.48788,0.55565 -0.83768,1.49916 -1.01826,2.74653 -0.0573,0.39601 -0.17149,0.8044 -0.25369,0.90752 -0.11861,0.14882 -5.95576,0.18703 -28.29358,0.18521 -15.47927,-10e-4 -28.22809,-0.0556 -28.3307,-0.12078 z m 29.7568,-16.71443 c 1.33937,-1.80771 1.43179,-2.6144 0.50477,-4.40583 -0.33,-0.63771 -0.6,-1.24554 -0.6,-1.35074 0,-0.10521 0.48499,-0.4477 1.07776,-0.7611 1.9167,-1.01339 1.97872,-1.44673 0.44325,-3.09724 -1.05721,-1.13642 -1.19247,-1.46488 -0.83066,-2.01707 l 0.26523,-0.40479 0.17557,0.67463 c 0.43096,1.65601 2.04884,3.53498 2.72992,3.17047 0.80005,-0.42817 1.54384,-2.16912 1.58778,-3.71647 0.0231,-0.81226 -0.0288,-0.99767 -0.44067,-1.575 -0.55702,-0.78079 -0.95818,-1.53957 -0.95818,-1.81236 0,-0.10885 0.30066,-0.59986 0.66812,-1.09115 1.21021,-1.61799 1.23056,-3.12001 0.0659,-4.86408 l -0.5954,-0.89161 0.60806,-1.17258 c 0.35515,-0.68488 0.64573,-1.48452 0.69863,-1.92258 0.13883,-1.14962 0.37362,-1.42436 1.22063,-1.42829 1.36329,-0.006 2.61076,-0.91205 2.82436,-2.05061 0.13454,-0.71718 -0.0763,-1.0211 -0.70827,-1.0211 -0.43101,0 -0.54522,-0.0787 -0.76156,-0.525 -0.43018,-0.88733 -0.52123,-0.93808 -1.56388,-0.87169 -0.77391,0.0493 -1.02885,0.13422 -1.36651,0.45533 -0.46123,0.43862 -3.34232,1.61422 -3.95923,1.61553 -0.21678,4.5e-4 -0.4723,0.095 -0.56783,0.21011 -0.0955,0.11511 -0.27072,1.0836 -0.38932,2.1522 -0.26664,2.40252 -0.37282,2.7405 -0.60389,1.92233 -0.1946,-0.68907 -0.44268,-0.84148 -0.57368,-0.35244 -0.15493,0.57834 -0.10803,2.94358 0.0604,3.04769 0.0861,0.0532 0.25407,0.0159 0.37323,-0.083 0.17383,-0.14427 0.23924,-0.12458 0.33093,0.0996 0.1472,0.3599 0.14948,3.14451 0.003,3.29111 -0.0614,0.0613 -0.23544,-6e-4 -0.38682,-0.13764 -0.38337,-0.34695 -0.72512,-0.31063 -0.83206,0.0884 -0.26035,0.97149 0.0575,1.63254 0.63601,1.32291 0.44852,-0.24004 0.46945,-0.21678 0.46945,0.52204 0,0.37535 0.10609,0.8876 0.23575,1.13835 0.21434,0.41449 0.21434,0.50103 0,0.95272 -0.12966,0.27325 -0.23575,0.80724 -0.23575,1.18665 0,0.74197 -0.0659,0.80066 -0.51617,0.46006 -0.16015,-0.12113 -0.4109,-0.22023 -0.55723,-0.22023 -0.39545,0 -0.614,-0.54272 -0.5984,-1.48597 0.008,-0.46146 0.0541,-3.57889 0.10329,-6.9276 l 0.0894,-6.08857 -0.3998,-0.47513 c -0.53167,-0.63186 -3.45322,-2.10061 -3.69582,-1.85801 -0.19444,0.19444 0.34623,0.72619 1.58892,1.56269 1.14092,0.768 1.30992,1.08488 1.39733,2.61993 0.0416,0.73021 -0.004,2.17141 -0.10028,3.20266 -0.24681,2.63121 -0.34126,2.84966 -0.80847,1.86991 -0.34518,-0.72385 -0.31809,-1.27756 0.12222,-2.4982 0.67873,-1.8816 0.40697,-3.2597 -0.97053,-4.92171 l -0.43513,-0.525 -0.50431,0.4875 c -0.30046,0.29044 -0.65878,0.4875 -0.88643,0.4875 -0.59761,0 -0.93235,0.47534 -0.81394,1.15581 0.0545,0.31305 0.15333,1.10919 0.21967,1.76919 0.0663,0.66 0.26575,1.55688 0.44314,1.99305 0.47491,1.16775 0.4268,1.65605 -0.23997,2.43555 -0.54255,0.63428 -0.5625,0.69789 -0.5625,1.79306 0,1.02522 0.0473,1.2092 0.4875,1.89503 0.26812,0.41777 0.4875,0.93036 0.4875,1.13909 0,0.20873 -0.28429,0.87055 -0.63175,1.4707 -0.80736,1.39451 -0.93336,2.51789 -0.41702,3.71814 0.44668,1.03835 1.46845,1.98038 2.14799,1.98038 0.44427,0 0.56219,0.0905 0.96744,0.74241 0.25383,0.40832 0.80392,0.98841 1.22242,1.28907 0.4185,0.30066 0.76092,0.5751 0.76092,0.60986 0,0.0348 -0.21312,0.44082 -0.47359,0.90235 -0.64544,1.14366 -0.77065,2.71036 -0.29511,3.6927 0.43974,0.90837 1.81718,2.36361 2.23725,2.36361 0.23324,0 0.53879,-0.27901 1.02668,-0.9375 z m -1.71963,-4.70965 c 0.0291,-0.15092 0.17633,-0.29818 0.32724,-0.32725 0.19817,-0.0382 0.25972,0.0234 0.22156,0.22156 -0.0291,0.15092 -0.17633,0.29818 -0.32725,0.32724 -0.19816,0.0382 -0.25971,-0.0234 -0.22155,-0.22155 z m 2.01136,-3.9813 c -0.34329,-0.49011 -0.1357,-0.53847 0.32668,-0.0761 0.31651,0.31651 0.35001,0.40454 0.15396,0.40454 -0.13783,0 -0.35411,-0.1478 -0.48064,-0.32844 z m -4.23154,-1.73405 c 0.11722,-0.22687 0.29031,-0.69937 0.38464,-1.05 0.0976,-0.36292 0.26152,-0.6375 0.38051,-0.6375 0.18117,0 0.53948,0.40681 0.88135,1.00063 0.0627,0.10896 -0.20531,0.35094 -0.70617,0.6375 -1.02062,0.58394 -1.22199,0.59451 -0.94033,0.0494 z m 6.84759,-3.26612 c 0.10436,-0.12575 0.22063,-0.19774 0.25839,-0.15998 0.10402,0.10402 -0.10734,0.3886 -0.28862,0.3886 -0.0995,0 -0.0881,-0.0861 0.0302,-0.22862 z m -1.71196,-0.45865 c -0.15232,-0.39694 -0.10153,-2.73855 0.0616,-2.83936 0.2176,-0.13448 0.74015,1.0976 0.74407,1.75437 0.006,1.03043 -0.54288,1.7698 -0.80566,1.08499 z m -5.62691,-0.61344 c -0.25528,-0.3854 -0.46414,-0.76386 -0.46414,-0.84103 0,-0.22721 1.21255,-1.68326 1.40176,-1.68326 0.18945,0 0.19402,0.30662 0.0307,2.0625 -0.12875,1.3846 -0.3023,1.46736 -0.96836,0.46179 z M 53.70002,62.503 c 0,-0.78416 0.0713,-1.26757 0.21583,-1.4625 0.20734,-0.2797 0.22653,-0.28061 0.4875,-0.023 0.56677,0.55942 0.18643,2.65685 -0.48179,2.65685 -0.17647,0 -0.22154,-0.23827 -0.22154,-1.17133 z m 1.95,0.95883 c 0,-0.13062 0.10687,-0.2375 0.2375,-0.2375 0.26489,0 0.21876,0.32292 -0.0594,0.41563 -0.098,0.0326 -0.17812,-0.0475 -0.17812,-0.17813 z m -9.22957,-5.4949 c -0.14004,-0.22657 0.37139,-1.0426 0.65342,-1.0426 0.29559,0 0.62698,0.27456 0.62462,0.5175 -0.002,0.21261 -1.17367,0.69398 -1.27804,0.5251 z m 8.62957,-0.40443 c 0,-0.072 0.0888,-0.25232 0.19741,-0.40081 0.25462,-0.3482 0.77759,-0.25425 0.77759,0.1397 0,0.2265 -0.1169,0.30921 -0.4875,0.34495 -0.26813,0.0259 -0.4875,-0.0119 -0.4875,-0.0838 z m -1.2,-0.71317 c 0,-0.12375 0.0675,-0.225 0.15,-0.225 0.0825,0 0.15,0.10125 0.15,0.225 0,0.12375 -0.0675,0.225 -0.15,0.225 -0.0825,0 -0.15,-0.10125 -0.15,-0.225 z m 2.56199,-0.88555 c -0.31837,-0.38361 -0.1365,-0.76445 0.36506,-0.76445 0.39772,0 0.44795,0.0505 0.44795,0.45 0,0.342 -0.0752,0.46074 -0.31313,0.49474 -0.17221,0.0246 -0.39716,-0.0565 -0.49988,-0.18029 z M 18.88773,67.25633 c 1.49326,-0.25411 2.54223,-0.79792 2.82124,-1.46259 0.72494,-1.72705 -0.84674,-6.87738 -2.43144,-7.96768 -0.55941,-0.38489 -0.94141,-0.84932 -1.6053,-1.95173 -0.1242,-0.20625 -0.41144,-0.93453 -0.6383,-1.6184 -0.6073,-1.83071 -0.71036,-1.87298 -2.84999,-1.16918 -0.93402,0.30724 -2.08117,0.61058 -2.54922,0.6741 -0.46804,0.0635 -0.95353,0.21803 -1.07888,0.34337 -0.81042,0.81042 -0.63223,4.99514 0.33558,7.8808 0.21477,0.64037 0.49403,1.36681 0.62059,1.61431 0.39702,0.77646 1.95722,2.84013 2.318,3.06601 1.05691,0.66173 3.18245,0.9101 5.05772,0.59099 z M 52.10024,56.4494 c 0.196,-0.31125 -0.10266,-0.72507 -0.52329,-0.72507 -0.36966,0 -0.49632,0.34007 -0.27836,0.74733 0.1937,0.36192 0.56625,0.35158 0.80165,-0.0223 z m 0.48472,-1.60667 c 0.44748,-0.27287 1.7134,-1.84592 2.51722,-3.12792 0.59387,-0.94717 0.53545,-1.19021 -0.38966,-1.62092 -0.97424,-0.45357 -1.4349,-0.4602 -2.61328,-0.0376 -0.91737,0.32896 -0.93515,0.32955 -1.95814,0.0642 -0.5678,-0.14727 -1.2987,-0.24602 -1.62422,-0.21945 -0.52242,0.0426 -0.5975,0.0975 -0.63996,0.46738 -0.12377,1.07841 1.31876,3.61091 2.51676,4.41842 0.6209,0.41852 1.55747,0.44241 2.19128,0.0559 z m 2.91506,-12.9184 c 0.40286,-0.40286 0.38467,-0.98761 -0.0394,-1.26545 -0.26339,-0.17259 -0.98343,-0.23213 -3.21609,-0.26596 -3.38414,-0.0513 -3.58224,0.0137 -2.70779,0.88816 l 0.55175,0.55174 1.84325,-0.0254 c 1.24849,-0.0172 2.01266,0.0401 2.36826,0.17785 0.73621,0.28511 0.8603,0.27881 1.2,-0.0609 z m 2.29104,-1.88696 c 1.13312,-1.26602 1.6977,-3.35156 1.56005,-5.76283 -0.15006,-2.62864 -0.54566,-3.35743 -1.11969,-2.06271 -0.15546,0.35063 -0.38631,0.72304 -0.51301,0.82759 -0.2867,0.23658 -0.67757,0.0998 -0.79784,-0.27911 -0.12989,-0.40924 -0.4543,-0.53775 -1.65712,-0.65646 -1.56756,-0.15469 -1.61077,-0.22504 -0.69854,-1.13727 l 0.77678,-0.77678 1.31667,0.0548 1.31666,0.0548 0.0462,-0.55681 c 0.0283,-0.34039 -0.13759,-1.09217 -0.4267,-1.93417 -0.38212,-1.11293 -0.44201,-1.4452 -0.31193,-1.73069 0.0885,-0.19433 0.22994,-0.35333 0.3142,-0.35333 0.25023,0 0.17476,-0.71974 -0.1402,-1.33711 -0.64388,-1.2621 -1.57139,-1.6269 -3.73923,-1.47067 -1.94166,0.13994 -2.57116,0.56607 -3.22285,2.1817 -0.43312,1.07376 -1.10027,2.05725 -2.35944,3.47821 -0.91326,1.03061 -1.78506,2.71773 -1.78506,3.45447 0,0.5524 -0.25038,1.76581 -0.61319,2.9717 -0.35074,1.1658 -0.36666,2.248 -0.0439,2.98902 0.13358,0.30672 0.28808,0.76018 0.34334,1.00768 0.12342,0.55286 0.72398,0.88983 1.23745,0.69433 0.19324,-0.0736 0.68884,-0.41487 1.10134,-0.75843 1.45902,-1.21518 3.21071,-1.80339 3.96592,-1.33176 0.22234,0.13886 0.37527,0.13886 0.68002,0 1.13044,-0.51506 2.46728,0.1293 3.36275,1.62086 0.17335,0.28875 0.31544,0.66338 0.31575,0.8325 6e-4,0.30848 0.28596,0.70561 0.45409,0.63188 0.0494,-0.0217 0.33626,-0.31476 0.63751,-0.65134 z m -4.08351,-6.49898 c -0.1975,-0.36903 -0.20587,-1.06406 -0.0128,-1.06406 0.19339,0 0.45528,0.50694 0.45528,0.88129 0,0.4259 -0.25581,0.53157 -0.44248,0.18277 z M 51.4844,33.19621 c 0.0327,-0.098 0.13957,-0.20486 0.2376,-0.23754 0.10961,-0.0365 0.14313,0.032 0.0871,0.17813 -0.10462,0.27265 -0.41467,0.32938 -0.32467,0.0594 z M 47.40846,32.6401 c -0.0837,-0.15632 -0.19546,-0.65302 -0.24843,-1.10377 -0.0876,-0.74554 -0.0646,-0.84179 0.25521,-1.06578 0.73698,-0.5162 2.60962,-0.1299 3.5165,0.72541 0.29971,0.28265 0.5073,0.57478 0.46133,0.64916 -0.046,0.0744 -0.57218,0.18066 -1.16935,0.23616 -0.74596,0.0693 -1.28392,0.21704 -1.71894,0.47198 -0.76068,0.44579 -0.89838,0.4567 -1.09632,0.0868 z m 1.77328,-1.3513 c 0.26204,-0.16597 0.0871,-0.46447 -0.27221,-0.46447 -0.30603,0 -0.66018,0.34933 -0.50821,0.5013 0.1378,0.1378 0.53425,0.1191 0.78042,-0.0368 z m 7.36828,-0.16447 c 0,-0.0825 -0.16477,-0.15 -0.36615,-0.15 -0.20138,0 -0.40786,0.0675 -0.45885,0.15 -0.0541,0.0875 0.0984,0.15 0.36615,0.15 0.25237,0 0.45885,-0.0675 0.45885,-0.15 z m 31.65,60.36514 c 0,-0.74079 0.1983,-1.04187 0.86081,-1.30696 0.72153,-0.28869 2.36846,-0.50778 2.23868,-0.29781 -0.0511,0.0826 -0.34746,0.19201 -0.65867,0.24308 -0.79423,0.13034 -1.46587,0.58378 -1.91239,1.29112 -0.21021,0.33299 -0.4151,0.60543 -0.45531,0.60543 -0.0402,0 -0.0731,-0.24069 -0.0731,-0.53486 z m -0.9,-4.10907 c 0,-0.22948 0.72643,-0.84993 2.10496,-1.79784 1.46649,-1.0084 1.84784,-1.13914 1.91649,-0.65708 0.0382,0.26825 -0.25907,0.52789 -1.67443,1.4625 -1.57485,1.03993 -2.34702,1.36644 -2.34702,0.99242 z m 3.03393,-0.0329 c 0.0813,-0.24392 0.52955,-0.50973 0.65241,-0.38688 0.0554,0.0554 0.0608,0.20488 0.0119,0.33219 -0.10276,0.26779 -0.75319,0.32133 -0.66431,0.0547 z m 3.21607,-3.97322 c -0.15703,-0.15703 -0.11684,-0.8 0.05,-0.8 0.0825,0 0.15,0.2025 0.15,0.45 0,0.46603 -0.0305,0.51947 -0.2,0.35 z M 9.09719,40.76178 C 8.90079,40.45241 8.49393,39.74794 8.19305,39.1963 7.89216,38.64467 7.4444,37.99173 7.198,37.74534 6.95161,37.49895 6.75002,37.25497 6.75002,37.20317 c 0,-0.17116 1.0316,-0.52889 1.52518,-0.52889 0.37708,0 0.44482,0.04 0.30482,0.18 -0.30284,0.30284 -0.20253,0.80048 0.28461,1.41188 0.6775,0.85032 0.86804,1.28277 0.97821,2.2202 0.0839,0.71359 0.0623,0.83792 -0.14504,0.83792 -0.13394,0 -0.40421,-0.25312 -0.60061,-0.5625 z m 2.83877,-0.42299 c -0.12952,-0.12952 -0.27841,-0.41639 -0.33086,-0.6375 -0.12493,-0.52661 -0.48271,-0.92701 -0.82833,-0.92701 -0.2151,0 -0.27675,-0.11438 -0.27675,-0.51349 0,-0.33358 -0.13606,-0.67519 -0.38833,-0.975 -0.36984,-0.43953 -0.37366,-0.46151 -0.0802,-0.46151 0.56138,0 1.32183,0.84539 1.7258,1.91856 0.42552,1.13043 0.61488,1.83144 0.49473,1.83144 -0.0443,0 -0.18652,-0.10597 -0.31604,-0.23549 z"
         id="path4197-3"
         inkscape:connector-curvature="0"
         sodipodi:nodetypes="cscssscsscscscccssccsscsscsscscccsccsccccscsccscssccsssssscccsssaaaaaaaaaaaccsssssssssscccccssscssscsscsssscccccccssssscsccsscscsscssccsccsccccsccscsccscscscsssccssscssccssscssssssssssccccccccsscccscscccssccccccccsscccsccssscsccccsccscscssssssscssccscscssccscsscsccccscccccsccccsccsccccsssccsccccccssssssscccsccsccccsssscccccccccccscccssccsscsscccsssccssssscccccssccccsssscscccsssssscc" />
      <path
         style="fill:#000000;fill-opacity:1"
         d="m 22.64108,100.38722 c -0.005,-0.10334 -0.0762,-0.52539 -0.15845,-0.93789 -0.0833,-0.41779 -0.20839,-5.73305 -0.28244,-12 -0.0731,-6.1875 -0.20147,-12.42654 -0.28525,-13.86453 -0.18897,-3.24376 -0.20329,-3.26847 -1.75857,-3.03383 -1.47029,0.22182 -3.50277,-0.055 -4.75012,-0.64687 -1.09718,-0.52065 -2.55334,-2.59321 -4.03298,-5.74017 -0.95963,-2.04096 -1.32568,-3.09264 -1.31415,-3.77558 0.007,-0.43891 0.0651,-0.33008 0.31055,0.58598 0.46638,1.7405 1.05624,3.00471 2.02099,4.33144 0.75682,1.0408 1.02326,1.28604 1.84753,1.7006 0.84854,0.42677 1.13967,0.49151 2.44624,0.54399 2.5329,0.10173 4.64776,-0.53366 5.12522,-1.53982 0.85045,-1.7922 -0.73468,-7.34284 -2.37298,-8.30946 -0.56564,-0.33373 -1.33648,-1.30417 -1.67409,-2.10757 -0.11691,-0.2782 -0.21256,-0.53251 -0.21256,-0.56513 0,-0.0326 0.28687,0.23902 0.6375,0.60365 0.69323,0.72093 1.6188,1.08065 2.36107,0.91762 0.64991,-0.14275 1.77307,-0.87083 4.87817,-3.16225 2.82972,-2.0882 5.88677,-4.17276 6.74826,-4.60154 0.2475,-0.12319 0.83364,-0.33426 1.30252,-0.46904 0.46889,-0.13479 1.04264,-0.40582 1.275,-0.6023 0.7549,-0.63832 1.85546,-2.67089 2.26122,-4.17614 0.20594,-0.76398 0.4561,-1.68652 0.5559,-2.05009 0.11894,-0.43324 0.13739,-0.87261 0.0536,-1.275 -0.2899,-1.39143 -0.30777,-2.29264 -0.0665,-3.35338 0.13382,-0.58839 0.24172,-1.32648 0.23976,-1.64019 -0.005,-0.82948 -0.008,-3.06442 0.39718,-4.52235 0.5983,-2.15148 1.61536,-4.22281 2.94334,-6.01817 1.13949,-1.54053 2.5738,-2.91062 4.19844,-3.92659 1.85798,-1.16188 3.94839,-2.30357 6.13923,-2.3512 1.67908,-0.0365 3.2816,0.83531 4.77904,1.59579 1.71243,0.86966 3.48639,1.84577 4.69761,3.33629 0.97809,1.20364 1.2495,2.83913 1.86112,4.26437 0.47733,1.11228 1.16536,2.16048 1.41144,3.34557 0.31216,1.50331 0.0522,2.86463 0.0472,4.6059 -0.002,0.825 -0.0603,2.07375 -0.12865,2.775 -0.10978,1.12569 -0.0873,1.36787 0.19181,2.06805 0.17388,0.43618 0.31615,1.11304 0.31615,1.50413 0,0.76001 0.15995,1.07411 1.04628,2.05456 0.86847,0.9607 1.66621,2.22427 3.07666,4.87326 1.33905,2.51488 2.83665,5.10736 3.81262,6.6 0.29669,0.45375 0.57319,0.90069 0.61444,0.9932 0.0413,0.0925 0.27887,0.33859 0.52805,0.54685 0.6333,0.5293 1.52444,2.38805 1.78208,3.71709 0.11919,0.61482 0.38026,1.48911 0.58016,1.94286 0.50599,1.14851 0.73652,2.17953 0.62283,2.78556 -0.0816,0.43495 -0.0534,0.51549 0.18268,0.5212 0.44158,0.0107 1.44975,1.29278 2.48022,3.1541 l 0.94898,1.71414 v 1.89891 c 0,1.89771 3e-4,1.89933 0.48441,2.5875 0.26642,0.37872 0.46466,0.68859 0.44052,0.68859 -0.0417,0 -3.46597,-1.20158 -4.89901,-1.71908 -0.37075,-0.13388 -1.38057,-0.44923 -2.24406,-0.70077 -1.40075,-0.40804 -1.63528,-0.43815 -2.17591,-0.27933 -0.9862,0.28972 -1.56645,0.57393 -3.29374,1.6133 -1.75047,1.0533 -10.1085,6.57278 -11.41859,7.54059 l -0.78676,0.58122 -0.10384,1.03403 c -0.28131,2.80109 0.89196,3.75534 10.87198,8.84247 7.35867,3.75094 9.03702,4.44904 10.07186,4.18931 0.21212,-0.0532 0.78336,-0.40736 1.26941,-0.78693 0.87611,-0.68419 0.89125,-0.68931 1.75636,-0.59388 1.32842,0.14654 1.38535,0.20157 0.71263,0.68888 -0.8305,0.60162 -1.31652,1.51536 -1.55406,2.92173 l -0.20159,1.19346 -28.3023,0.0379 c -22.58952,0.0302 -28.30411,-3e-5 -28.31125,-0.15 z M 52.07891,84.7934 c 1.19486,-1.2791 1.87615,-2.73715 1.70506,-3.64909 -0.0537,-0.28612 -0.36452,-1.02403 -0.69077,-1.6398 -0.32625,-0.61578 -0.59318,-1.15204 -0.59318,-1.19171 0,-0.0397 0.47536,-0.3219 1.05636,-0.62721 1.10131,-0.57872 1.64364,-1.10229 1.64364,-1.58676 0,-0.23534 0.0506,-0.25797 0.29014,-0.12978 0.48889,0.26165 0.75403,0.17819 1.29374,-0.40722 0.63312,-0.68673 1.10411,-1.88719 1.21729,-3.1026 0.0935,-1.00406 -0.0718,-1.50756 -0.8406,-2.5599 -0.64374,-0.88119 -0.65245,-1.17701 -0.0577,-1.956 1.36972,-1.79386 1.43686,-3.43026 0.21502,-5.24068 -0.25737,-0.38135 -0.46794,-0.75417 -0.46794,-0.8285 0,-0.0743 0.23837,-0.59407 0.52972,-1.15498 0.30995,-0.59675 0.59362,-1.4229 0.68376,-1.9914 0.0847,-0.53436 0.23447,-1.0227 0.33278,-1.0852 0.0983,-0.0625 0.46778,-0.11468 0.82106,-0.11594 1.5882,-0.006 2.88268,-1.13498 2.88268,-2.51485 0,-0.70866 -0.20997,-0.93745 -0.86033,-0.93745 -0.44768,0 -0.52981,-0.0688 -0.78046,-0.6535 -0.24841,-0.57954 -0.34794,-0.66435 -0.87932,-0.74932 -0.86459,-0.13825 -1.5237,0.0255 -2.18617,0.54301 -0.50093,0.39136 -1.13614,0.67889 -3.27327,1.48166 -0.2433,0.0914 -0.4998,0.0987 -0.6435,0.0182 -0.20654,-0.11558 -0.17476,-0.21384 0.23433,-0.7244 0.63264,-0.78956 1.86137,-2.6227 1.98736,-2.96492 0.14859,-0.40363 -0.57436,-1.05216 -1.52485,-1.36786 l -0.79686,-0.26467 -1.13137,0.41263 c -1.11769,0.40765 -1.14084,0.40965 -1.91415,0.16589 -0.99914,-0.31495 -2.37776,-0.32737 -2.62979,-0.0237 -0.55654,0.67059 1.26191,4.20587 2.59339,5.04186 0.38022,0.23873 0.67486,0.29041 1.41749,0.24863 0.93168,-0.0524 1.07929,0.0307 0.80953,0.45595 -0.0985,0.15529 -0.21581,0.14143 -0.58212,-0.0688 -0.38576,-0.2214 -0.49702,-0.23152 -0.69933,-0.0636 -0.47116,0.39103 -0.17901,1.36293 0.4097,1.36293 0.18684,0 0.42072,-0.081 0.51972,-0.18 0.14,-0.14 0.17668,-0.015 0.16505,0.5625 -0.008,0.40838 -0.0664,0.91125 -0.12935,1.1175 -0.0987,0.32344 -0.12976,0.33891 -0.2261,0.1125 -0.16005,-0.37612 -0.63135,-0.32761 -0.72859,0.075 -0.21537,0.89169 -0.27036,2.4836 -0.10677,3.09111 0.15546,0.57734 0.21778,0.64451 0.54074,0.58277 l 0.36502,-0.0698 v 1.4042 c 0,1.28815 -0.13719,1.74483 -0.35424,1.1792 -0.10361,-0.26999 -0.5653,-0.29546 -0.81576,-0.045 -0.14,0.14 -0.18,-0.82411 -0.18,-4.33849 v -4.51849 l -0.3737,-0.44412 c -0.62802,-0.74635 -3.71577,-2.23262 -4.1197,-1.98298 -0.26673,0.16485 -0.0681,0.67931 0.37425,0.96912 0.20303,0.13303 0.36915,0.32894 0.36915,0.43535 0,0.32664 -0.79972,0.97359 -1.26767,1.0255 -0.31476,0.0349 -0.52576,0.19193 -0.73028,0.54341 -0.27191,0.46732 -0.27436,0.52902 -0.0448,1.13002 0.13353,0.34964 0.24278,1.01354 0.24278,1.47534 0,0.52992 0.13832,1.20711 0.375,1.83591 0.20625,0.54795 0.375,1.15614 0.375,1.35152 0,0.19539 -0.26586,0.67698 -0.59081,1.0702 -0.96228,1.16449 -0.97984,2.11762 -0.0694,3.76708 0.28061,0.50841 0.51021,1.03661 0.51021,1.17378 0,0.13717 -0.26605,0.69995 -0.59122,1.25063 -1.02779,1.74054 -1.1047,2.81609 -0.31241,4.36911 0.29501,0.57827 1.3698,1.64333 1.69156,1.67625 0.10289,0.0105 0.34108,0.0352 0.52932,0.0548 0.18823,0.0196 0.36292,0.0616 0.38819,0.0934 0.0253,0.0318 0.26413,0.38056 0.53079,0.7751 0.26667,0.39454 0.75011,0.89288 1.07431,1.10743 0.3242,0.21455 0.5886,0.43174 0.58756,0.48265 -10e-4,0.0509 -0.20354,0.49021 -0.45,0.97621 -0.37977,0.74889 -0.4481,1.05618 -0.4481,2.01514 0,0.82928 0.0811,1.29896 0.3035,1.75844 0.31306,0.64671 2.08289,2.46778 2.39834,2.46778 0.0978,0 0.37996,-0.21642 0.62705,-0.48093 z m -1.15389,-5.51907 c 0.051,-0.0825 0.12247,-0.15 0.15885,-0.15 0.0364,0 0.0662,0.0675 0.0662,0.15 0,0.0825 -0.0715,0.15 -0.15885,0.15 -0.0874,0 -0.11714,-0.0675 -0.0661,-0.15 z m 2.39104,-5.76762 c -0.13248,-0.2022 -0.21779,-0.4875 -0.18958,-0.63402 0.0337,-0.17522 0.13655,-0.0494 0.30036,0.36762 0.28132,0.71617 0.24351,0.8071 -0.11078,0.2664 z m -4.56592,0.11472 c 7e-5,-0.0672 0.12459,-0.44982 0.27671,-0.85037 l 0.27659,-0.72827 0.32329,0.411 c 0.17781,0.22605 0.32329,0.45697 0.32329,0.51315 0,0.0562 -0.27,0.2539 -0.6,0.43937 -0.33,0.18547 -0.59994,0.28227 -0.59988,0.21512 z m 2.47488,-3.17839 c -0.59381,-0.12642 -0.74964,-0.74865 -0.60933,-2.43302 l 0.10558,-1.26751 h 0.58938 0.58937 l 0.005,0.67841 c 0.003,0.37313 0.10351,0.80894 0.22419,0.96848 0.1928,0.25487 0.19222,0.33157 -0.005,0.63222 -0.1233,0.18819 -0.22419,0.61453 -0.22419,0.94743 0,0.33291 -0.0506,0.5973 -0.1125,0.58753 -0.0619,-0.01 -0.315,-0.0608 -0.5625,-0.11354 z m 2.56954,-0.95621 c -0.14425,-0.53826 -0.10855,-1.9125 0.0497,-1.9125 0.22647,0 0.49022,1.19439 0.3862,1.74889 -0.10845,0.57805 -0.30504,0.65184 -0.43588,0.16361 z M 48.14716,69.1447 C 47.7588,68.51632 47.822,68.16117 48.45232,67.43 l 0.4477,-0.51934 v 0.45983 c 0,0.86736 -0.19275,2.30384 -0.30914,2.30384 -0.064,0 -0.26369,-0.23833 -0.44372,-0.52963 z m 5.70516,-6.70787 c 0.002,-0.98605 0.15229,-1.42007 0.43093,-1.24786 0.21027,0.12995 0.21863,1.50818 0.0115,1.89522 C 54.00966,63.6169 53.85,63.3833 53.85232,62.43683 Z m -5.22637,0.25951 c -0.25919,-0.56887 -0.20186,-1.10598 0.20783,-1.94701 l 0.36534,-0.75 -0.0865,1.425 c -0.0942,1.55144 -0.21522,1.86779 -0.48667,1.27201 z m -1.97593,-5.00745 c 0,-0.25022 0.41859,-0.65168 0.57724,-0.55362 0.26332,0.16273 0.20731,0.29695 -0.20341,0.48745 -0.20561,0.0954 -0.37383,0.12514 -0.37383,0.0662 z m 8.73273,-0.33773 c 0.0779,-0.23357 0.41343,-0.27447 0.42519,-0.0518 0.004,0.0825 -0.10466,0.17332 -0.24227,0.20183 -0.15641,0.0324 -0.22498,-0.0238 -0.18292,-0.15 z m -6.80754,-0.84283 c -0.30239,-0.47245 -0.51637,-0.89252 -0.47551,-0.93349 0.15834,-0.15875 1.10032,1.05887 1.10032,1.42229 0,0.20746 -0.0169,0.37562 -0.0375,0.3737 -0.0206,-0.002 -0.28491,-0.39006 -0.58731,-0.8625 z m 7.97368,-0.71036 c -0.14161,-0.17063 -0.15068,-0.28183 -0.0326,-0.39991 0.22756,-0.22756 0.6663,-0.0283 0.60732,0.27589 -0.0674,0.34732 -0.34048,0.40626 -0.57472,0.12402 z m -0.91093,-13.6341 c 0.0961,-0.11576 0.23426,-0.41828 0.30711,-0.67228 0.19814,-0.69087 -0.18937,-1.0854 -1.20818,-1.23007 -1.22393,-0.1738 -5.21249,-0.16079 -5.54673,0.0181 -0.44873,0.24015 -0.34647,0.65892 0.30452,1.24705 l 0.59466,0.53724 1.69284,-0.0848 c 1.29469,-0.0648 1.83396,-0.0324 2.29284,0.13773 0.78486,0.29105 1.34638,0.30794 1.56294,0.047 z m 2.34074,-2.03954 c 1.18898,-1.42666 1.63056,-3.09142 1.53186,-5.775 -0.0903,-2.45608 -0.37548,-3.26487 -1.02794,-2.91568 -0.14222,0.0761 -0.33493,0.36975 -0.42826,0.65253 -0.0933,0.28278 -0.27456,0.60119 -0.40274,0.70757 -0.19735,0.16379 -0.29382,0.12121 -0.62982,-0.27801 -0.35244,-0.41873 -0.51413,-0.48293 -1.44678,-0.57444 -1.48132,-0.14535 -1.53234,-0.2014 -0.81775,-0.89833 l 0.60868,-0.59364 1.31893,0.0432 c 1.66094,0.0544 1.7655,-0.0337 1.5106,-1.27326 -0.0984,-0.47847 -0.30635,-1.20745 -0.46211,-1.61995 -0.36059,-0.95496 -0.35699,-1.31186 0.0166,-1.65 0.38451,-0.34797 0.37601,-0.58047 -0.055,-1.50613 -0.47509,-1.02026 -1.05956,-1.47792 -2.19518,-1.71892 -1.55738,-0.33049 -3.77555,0.15824 -4.52309,0.99659 -0.13657,0.15315 -0.42546,0.71694 -0.64198,1.25286 -0.50066,1.23915 -0.85656,1.77117 -2.26715,3.389 -1.36277,1.56299 -1.74328,2.36942 -2.00318,4.24535 -0.10734,0.77481 -0.32324,1.781 -0.47978,2.23598 -0.38834,1.12874 -0.38138,2.70253 0.0154,3.48027 0.165,0.32343 0.3,0.72191 0.3,0.88552 0,0.16361 0.15002,0.40255 0.33338,0.53098 0.59773,0.41867 1.06047,0.28491 2.28318,-0.65998 1.10171,-0.85137 2.44735,-1.50652 3.09434,-1.50652 0.16481,0 0.47238,0.11318 0.6835,0.25151 0.36122,0.23667 0.41397,0.23528 0.89487,-0.0237 0.44206,-0.23807 0.5923,-0.25086 1.11336,-0.0947 1.05485,0.31604 2.24737,1.66927 2.24737,2.55024 0,0.39027 0.41886,0.8 0.66972,0.65513 0.10803,-0.0624 0.44956,-0.41719 0.75896,-0.78844 z M 53.78466,33.1183 c -0.0814,-0.21378 -0.0642,-0.23101 0.084,-0.084 0.10252,0.10175 0.1486,0.22279 0.10242,0.26897 -0.0462,0.0462 -0.13006,-0.0371 -0.18639,-0.185 z m -6.22805,-0.63165 c -0.0861,-0.16093 -0.15659,-0.63621 -0.15659,-1.05617 0,-0.68668 0.0398,-0.77869 0.39481,-0.91368 0.21715,-0.0826 0.53189,-0.1066 0.69944,-0.0534 0.29676,0.0942 0.29721,0.10073 0.0177,0.2535 -0.67263,0.36762 -0.50043,0.85746 0.30144,0.85746 0.53459,0 0.83663,-0.22744 0.83663,-0.63 0,-0.35887 0.12535,-0.34135 0.79018,0.11041 0.82785,0.56253 0.73121,0.76476 -0.40921,0.8563 -0.67154,0.0539 -1.17606,0.19912 -1.64341,0.473 -0.65628,0.3846 -0.67858,0.38736 -0.83097,0.10261 z m 9.30688,-1.15355 c 0.1701,-0.20496 0.15728,-0.27262 -0.0853,-0.45 -0.15703,-0.11482 -0.42846,-0.20877 -0.60317,-0.20877 -0.17471,0 -0.44614,0.094 -0.60317,0.20877 -0.24258,0.17738 -0.2554,0.24504 -0.0853,0.45 0.11011,0.13268 0.41992,0.24123 0.68847,0.24123 0.26855,0 0.57836,-0.10855 0.68847,-0.24123 z m 29.68653,63.08345 c 0.12375,-0.0843 0.4275,-0.25508 0.675,-0.3796 l 0.45,-0.2264 -0.45,0.38115 c -0.2475,0.20963 -0.55125,0.38044 -0.675,0.37959 -0.2,-0.001 -0.2,-0.0186 0,-0.15474 z m 1.8,-3.21722 c 0,-0.25719 0.52145,-0.825 0.75763,-0.825 0.0867,0 -0.0226,0.23625 -0.2428,0.525 -0.44675,0.58572 -0.51483,0.62539 -0.51483,0.3 z m -0.75,-3.94032 c 0,-0.23265 3.07499,-2.43468 3.39987,-2.43468 0.45186,0 0.1307,0.3389 -1.11237,1.17377 -1.49116,1.00151 -2.2875,1.44046 -2.2875,1.26091 z m 6.01184,-4.32218 c 0.007,-0.17474 0.0427,-0.21028 0.0906,-0.0906 0.0433,0.10828 0.038,0.23765 -0.0118,0.2875 -0.0498,0.0498 -0.0853,-0.0387 -0.0788,-0.19688 z M 9.70264,55.57433 c -0.047,-0.20625 -0.1658,-0.74625 -0.26404,-1.2 -0.22036,-1.01791 -0.80446,-2.33798 -1.85839,-4.2 -0.70556,-1.24655 -1.29083,-2.72215 -1.27506,-3.21472 0.003,-0.0882 0.47593,0.79681 1.05134,1.96659 0.72035,1.46444 1.27935,2.38198 1.79478,2.94594 0.78354,0.85732 1.80719,1.45059 2.50962,1.45449 0.32249,0.002 0.36434,0.0345 0.18913,0.1477 -0.12375,0.08 -0.40315,0.14644 -0.62088,0.1477 -0.65756,0.004 -1.05375,0.45733 -1.25707,1.43898 -0.14592,0.70453 -0.20167,0.81074 -0.26943,0.51332 z m 7.40853,-1.735 c -0.11762,-0.40223 -0.37361,-0.8911 -0.56888,-1.08637 -0.31399,-0.31399 -0.44532,-0.34405 -1.13615,-0.26009 -0.73784,0.0897 -0.7645,0.0814 -0.48112,-0.14906 0.165,-0.1342 0.74443,-0.46994 1.28761,-0.74609 1.15915,-0.5893 1.82644,-1.29515 2.40456,-2.54351 0.23049,-0.49768 0.42216,-0.83469 0.42595,-0.74889 0.0204,0.46344 -0.50183,1.9655 -0.99607,2.86466 -0.47985,0.87297 -0.57716,1.20777 -0.64368,2.21457 l -0.0784,1.18612 -0.21385,-0.73134 z m 1.28989,-7.32248 c -0.47212,-0.47334 -0.64878,-0.56047 -0.99569,-0.49109 -0.40778,0.0816 -0.66295,-0.0805 -0.96611,-0.61348 -0.0799,-0.14041 -0.0201,-0.15453 0.23969,-0.0566 0.62652,0.23607 0.98664,-0.0417 1.2562,-0.96897 0.28159,-0.96861 0.34465,-0.93095 0.82166,0.49072 0.18044,0.53779 0.29179,1.19862 0.2648,1.57147 l -0.0466,0.64342 -0.57396,-0.57543 z M 5.68291,45.78683 c -0.17776,-0.35062 -0.58858,-0.95592 -0.91292,-1.3451 -0.47503,-0.57 -0.57915,-0.80336 -0.5354,-1.2 l 0.0543,-0.4924 0.19055,0.45 c 0.10481,0.2475 0.3133,0.585 0.46332,0.75 0.15002,0.165 0.32351,0.46875 0.38553,0.675 0.062,0.20625 0.27228,0.56581 0.46724,0.79901 0.30961,0.37034 0.48761,1.00099 0.28253,1.00099 -0.0396,0 -0.2174,-0.28687 -0.39516,-0.6375 z m 10.18037,-1.35676 c -0.06,-0.14809 -0.0666,-0.86714 -0.0147,-1.59789 0.0915,-1.28895 0.0827,-1.34027 -0.2953,-1.71824 -0.41549,-0.41549 -1.09119,-0.51365 -1.6131,-0.23433 -0.26457,0.14159 -0.29014,0.10194 -0.29014,-0.45 0,-0.66784 0.0745,-0.71645 0.5682,-0.37067 0.42211,0.29566 0.89651,0.15696 1.11679,-0.3265 0.0917,-0.20123 0.22835,-0.34533 0.3037,-0.32021 0.0754,0.0251 0.41097,0.57056 0.74582,1.21209 0.5968,1.14342 0.6029,1.17056 0.3091,1.37634 -0.27508,0.19268 -0.55352,1.14294 -0.68087,2.32367 -0.034,0.31515 -0.0579,0.33203 -0.14948,0.10574 z M 6.75961,43.23683 C 6.51634,42.88621 6.18268,42.42505 6.01814,42.21205 5.72017,41.82632 5.72016,41.82376 6.01514,41.5708 c 0.23531,-0.20148 0.27793,-0.36945 0.20622,-0.81272 -0.085,-0.52554 -0.0764,-0.54142 0.14423,-0.26714 0.12905,0.16039 0.43698,0.81634 0.6843,1.45767 0.7102,1.8416 0.55876,2.51263 -0.29074,1.28822 z m 3.59041,-0.8625 c 0,-0.0825 0.17092,-0.15 0.37982,-0.15 0.5276,0 1.36053,-0.37004 1.53511,-0.682 0.0801,-0.14307 0.22195,-0.21291 0.31532,-0.15521 0.33245,0.20547 0.15847,0.40871 -0.65953,0.77047 -0.85838,0.37961 -1.57072,0.47791 -1.57072,0.21674 z M 9.34155,40.83683 C 9.26165,40.73371 8.90668,40.11803 8.55265,39.46866 8.19861,38.81929 7.70382,38.05436 7.4531,37.76881 6.95129,37.19728 7.05108,36.98111 7.81877,36.97663 c 0.32043,-0.002 0.39375,0.0674 0.39375,0.37204 0,0.20589 0.26916,0.72901 0.59812,1.1625 0.50621,0.66704 0.93938,1.75279 0.93938,2.35458 0,0.21628 -0.23126,0.19991 -0.40847,-0.0289 z m 1.68964,-2.19849 c -0.20797,-0.0813 -0.30432,-0.27896 -0.32974,-0.67639 -0.0311,-0.48632 -0.006,-0.53625 0.19121,-0.37298 0.2135,0.17719 0.65736,0.9219 0.65736,1.10291 0,0.1058 -0.15129,0.0902 -0.51883,-0.0535 z"
         id="path4195-7"
         inkscape:connector-curvature="0"
         sodipodi:nodetypes="ccssscsccssssssscssccssccccaaaaaaaacccsssscsssscscssscsssscsscsscscsccccsssscssccssccccsscscccscscssssccccsscccssccscsscsscscccsssccssscsccscsscscccsssccccsccccsssccsccccccscccscccsscsssccscssccssccsscccccccsccsscsccscscccccccccscsscscsccsccsssssssscccscccccscccscccsssssccccsccsccscsccsscssssscccccccscsscccsccsccsccscccccccccscccccscccscssccccccscccscccccscccsccssccssccscscscccccscc" />
    </g>
  </g>
</svg>
